<svg width="20" height="21" viewBox="0 0 20 21" fill="none" xmlns="http://www.w3.org/2000/svg">
<path d="M2 6H16V4H2V6ZM2 20C1.45 20 0.979167 19.8042 0.5875 19.4125C0.195833 19.0208 0 18.55 0 18V4C0 3.45 0.195833 2.97917 0.5875 2.5875C0.979167 2.19583 1.45 2 2 2H3V0H5V2H13V0H15V2H16C16.55 2 17.0208 2.19583 17.4125 2.5875C17.8042 2.97917 18 3.45 18 4V9.675C17.6833 9.525 17.3583 9.4 17.025 9.3C16.6917 9.2 16.35 9.125 16 9.075V8H2V18H8.3C8.41667 18.3667 8.55417 18.7167 8.7125 19.05C8.87083 19.3833 9.05833 19.7 9.275 20H2ZM15 21C13.6167 21 12.4375 20.5125 11.4625 19.5375C10.4875 18.5625 10 17.3833 10 16C10 14.6167 10.4875 13.4375 11.4625 12.4625C12.4375 11.4875 13.6167 11 15 11C16.3833 11 17.5625 11.4875 18.5375 12.4625C19.5125 13.4375 20 14.6167 20 16C20 17.3833 19.5125 18.5625 18.5375 19.5375C17.5625 20.5125 16.3833 21 15 21ZM16.675 18.375L17.375 17.675L15.5 15.8V13H14.5V16.2L16.675 18.375Z" fill="#E60C2B"/>
</svg>
