<svg width="16" height="16" viewBox="0 0 16 16" fill="none" xmlns="http://www.w3.org/2000/svg">
<g id="Shopping cart" clip-path="url(#clip0_1427_38340)">
<path id="Vector" d="M10.3667 8.66634C10.8667 8.66634 11.3067 8.39301 11.5334 7.97967L13.9201 3.65301C14.1667 3.21301 13.8467 2.66634 13.3401 2.66634H3.47341L2.84675 1.33301H0.666748V2.66634H2.00008L4.40008 7.72634L3.50008 9.35301C3.01341 10.2463 3.65341 11.333 4.66675 11.333H12.6667V9.99967H4.66675L5.40008 8.66634H10.3667ZM4.10675 3.99967H12.2067L10.3667 7.33301H5.68675L4.10675 3.99967ZM4.66675 11.9997C3.93341 11.9997 3.34008 12.5997 3.34008 13.333C3.34008 14.0663 3.93341 14.6663 4.66675 14.6663C5.40008 14.6663 6.00008 14.0663 6.00008 13.333C6.00008 12.5997 5.40008 11.9997 4.66675 11.9997ZM11.3334 11.9997C10.6001 11.9997 10.0067 12.5997 10.0067 13.333C10.0067 14.0663 10.6001 14.6663 11.3334 14.6663C12.0667 14.6663 12.6667 14.0663 12.6667 13.333C12.6667 12.5997 12.0667 11.9997 11.3334 11.9997Z" fill="#E60C2B"/>
</g>
<defs>
<clipPath id="clip0_1427_38340">
<rect width="16" height="16" fill="white"/>
</clipPath>
</defs>
</svg>
