<svg width="16" height="16" viewBox="0 0 16 16" fill="none" xmlns="http://www.w3.org/2000/svg">
<g id="cart-arrow-right">
<path id="Vector" d="M6.00008 13.333C6.00008 13.6866 5.8596 14.0258 5.60956 14.2758C5.35951 14.5259 5.02037 14.6663 4.66675 14.6663C4.31313 14.6663 3.97399 14.5259 3.72394 14.2758C3.47389 14.0258 3.33341 13.6866 3.33341 13.333C3.33341 12.9794 3.47389 12.6402 3.72394 12.3902C3.97399 12.1402 4.31313 11.9997 4.66675 11.9997C5.02037 11.9997 5.35951 12.1402 5.60956 12.3902C5.8596 12.6402 6.00008 12.9794 6.00008 13.333ZM11.3334 11.9997C10.9798 11.9997 10.6407 12.1402 10.3906 12.3902C10.1406 12.6402 10.0001 12.9794 10.0001 13.333C10.0001 13.6866 10.1406 14.0258 10.3906 14.2758C10.6407 14.5259 10.9798 14.6663 11.3334 14.6663C11.687 14.6663 12.0262 14.5259 12.2762 14.2758C12.5263 14.0258 12.6667 13.6866 12.6667 13.333C12.6667 12.9794 12.5263 12.6402 12.2762 12.3902C12.0262 12.1402 11.687 11.9997 11.3334 11.9997ZM4.80008 9.75301C4.79341 9.77967 4.79341 9.80634 4.80008 9.83301C4.80008 9.87721 4.81764 9.9196 4.8489 9.95086C4.88015 9.98211 4.92254 9.99967 4.96675 9.99967H12.6667V11.333H4.66675C4.31313 11.333 3.97399 11.1925 3.72394 10.9425C3.47389 10.6924 3.33341 10.3533 3.33341 9.99967C3.33341 9.76634 3.38008 9.53967 3.49341 9.33301L4.40008 7.72634L2.00008 2.66634H0.666748V1.33301H2.84675L3.47341 2.66634H13.3334C13.5102 2.66634 13.6798 2.73658 13.8048 2.8616C13.9298 2.98663 14.0001 3.1562 14.0001 3.33301C14.0001 3.44634 13.9667 3.55967 13.9201 3.66634L11.5334 7.99967C11.2934 8.41301 10.8467 8.66634 10.3667 8.66634H5.40008L4.80008 9.75301ZM6.00008 6.33301H8.66675V7.66634L10.6667 5.66634L8.66675 3.66634V4.99967H6.00008V6.33301Z" fill="white"/>
</g>
</svg>
