<svg width="16" height="17" viewBox="0 0 16 17" fill="none" xmlns="http://www.w3.org/2000/svg">
<g id="favorite">
<mask id="mask0_1427_38614" style="mask-type:alpha" maskUnits="userSpaceOnUse" x="0" y="0" width="16" height="17">
<rect id="Bounding box" y="0.5" width="16" height="16" fill="#D9D9D9"/>
</mask>
<g mask="url(#mask0_1427_38614)">
<path id="favorite_2" d="M7.99992 14.4999L7.03325 13.6333C5.91103 12.6222 4.98325 11.7499 4.24992 11.0166C3.51659 10.2833 2.93325 9.62494 2.49992 9.0416C2.06659 8.45827 1.76381 7.92216 1.59159 7.43327C1.41936 6.94438 1.33325 6.44438 1.33325 5.93327C1.33325 4.88882 1.68325 4.0166 2.38325 3.3166C3.08325 2.6166 3.95547 2.2666 4.99992 2.2666C5.5777 2.2666 6.1277 2.38882 6.64992 2.63327C7.17214 2.87771 7.62214 3.22216 7.99992 3.6666C8.3777 3.22216 8.8277 2.87771 9.34992 2.63327C9.87214 2.38882 10.4221 2.2666 10.9999 2.2666C12.0444 2.2666 12.9166 2.6166 13.6166 3.3166C14.3166 4.0166 14.6666 4.88882 14.6666 5.93327C14.6666 6.44438 14.5805 6.94438 14.4083 7.43327C14.236 7.92216 13.9333 8.45827 13.4999 9.0416C13.0666 9.62494 12.4833 10.2833 11.7499 11.0166C11.0166 11.7499 10.0888 12.6222 8.96658 13.6333L7.99992 14.4999ZM7.99992 12.6999C9.06659 11.7444 9.94436 10.9249 10.6333 10.2416C11.3221 9.55827 11.8666 8.96382 12.2666 8.45827C12.6666 7.95271 12.9444 7.50271 13.0999 7.10827C13.2555 6.71382 13.3333 6.32216 13.3333 5.93327C13.3333 5.2666 13.111 4.71105 12.6666 4.2666C12.2221 3.82216 11.6666 3.59993 10.9999 3.59993C10.4777 3.59993 9.99436 3.74716 9.54992 4.0416C9.10547 4.33605 8.79992 4.71105 8.63325 5.1666H7.36659C7.19992 4.71105 6.89436 4.33605 6.44992 4.0416C6.00547 3.74716 5.52214 3.59993 4.99992 3.59993C4.33325 3.59993 3.7777 3.82216 3.33325 4.2666C2.88881 4.71105 2.66659 5.2666 2.66659 5.93327C2.66659 6.32216 2.74436 6.71382 2.89992 7.10827C3.05547 7.50271 3.33325 7.95271 3.73325 8.45827C4.13325 8.96382 4.6777 9.55827 5.36659 10.2416C6.05547 10.9249 6.93325 11.7444 7.99992 12.6999Z" fill="#E60C2B"/>
</g>
</g>
</svg>
