<svg width="18" height="20" viewBox="0 0 18 20" fill="none" xmlns="http://www.w3.org/2000/svg">
<path d="M8.99961 19.6C7.83294 19.6 6.74017 19.3783 5.72128 18.935C4.70238 18.4917 3.81572 17.8928 3.06128 17.1383C2.30683 16.3839 1.70794 15.4972 1.26461 14.4783C0.821276 13.4594 0.599609 12.3667 0.599609 11.2C0.599609 10.0333 0.821276 8.94056 1.26461 7.92167C1.70794 6.90277 2.30683 6.01611 3.06128 5.26167C3.81572 4.50722 4.70238 3.90833 5.72128 3.465C6.74017 3.02167 7.83294 2.8 8.99961 2.8H9.17461L7.87461 1.525L9.14961 0.25L12.5996 3.7L9.14961 7.15L7.87461 5.875L9.14961 4.6H8.99961C7.18294 4.6 5.62878 5.24583 4.33711 6.5375C3.04544 7.82917 2.39961 9.38333 2.39961 11.2C2.39961 13.0167 3.04544 14.5708 4.33711 15.8625C5.62878 17.1542 7.18294 17.8 8.99961 17.8C10.8163 17.8 12.3704 17.1542 13.6621 15.8625C14.9538 14.5708 15.5996 13.0167 15.5996 11.2H17.3996C17.3996 12.3667 17.1779 13.4594 16.7346 14.4783C16.2913 15.4972 15.6924 16.3839 14.9379 17.1383C14.1835 17.8928 13.2968 18.4917 12.2779 18.935C11.2591 19.3783 10.1663 19.6 8.99961 19.6Z" fill="#E60C2B"/>
</svg>
