<svg width="14" height="15" viewBox="0 0 14 15" fill="none" xmlns="http://www.w3.org/2000/svg">
<path d="M6.99992 10.834C7.18881 10.834 7.34714 10.7701 7.47492 10.6423C7.6027 10.5145 7.66659 10.3562 7.66659 10.1673C7.66659 9.97843 7.6027 9.8201 7.47492 9.69232C7.34714 9.56454 7.18881 9.50065 6.99992 9.50065C6.81103 9.50065 6.6527 9.56454 6.52492 9.69232C6.39714 9.8201 6.33325 9.97843 6.33325 10.1673C6.33325 10.3562 6.39714 10.5145 6.52492 10.6423C6.6527 10.7701 6.81103 10.834 6.99992 10.834ZM6.33325 8.16732H7.66659V4.16732H6.33325V8.16732ZM6.99992 14.1673C6.0777 14.1673 5.21103 13.9923 4.39992 13.6423C3.58881 13.2923 2.88325 12.8173 2.28325 12.2173C1.68325 11.6173 1.20825 10.9118 0.858252 10.1007C0.508252 9.28954 0.333252 8.42287 0.333252 7.50065C0.333252 6.57843 0.508252 5.71176 0.858252 4.90065C1.20825 4.08954 1.68325 3.38398 2.28325 2.78398C2.88325 2.18398 3.58881 1.70898 4.39992 1.35898C5.21103 1.00898 6.0777 0.833984 6.99992 0.833984C7.92214 0.833984 8.78881 1.00898 9.59992 1.35898C10.411 1.70898 11.1166 2.18398 11.7166 2.78398C12.3166 3.38398 12.7916 4.08954 13.1416 4.90065C13.4916 5.71176 13.6666 6.57843 13.6666 7.50065C13.6666 8.42287 13.4916 9.28954 13.1416 10.1007C12.7916 10.9118 12.3166 11.6173 11.7166 12.2173C11.1166 12.8173 10.411 13.2923 9.59992 13.6423C8.78881 13.9923 7.92214 14.1673 6.99992 14.1673Z" fill="#2196F3"/>
</svg>
