<svg xmlns="http://www.w3.org/2000/svg" width="212" height="158" viewBox="0 0 212 158" fill="none">
  <g clip-path="url(#clip0_2923_25720)">
    <path d="M154.571 149.772H150.373L148.375 133.586H154.571V149.772Z" fill="#9E616A"/>
    <path d="M156.787 157.043H153.776L153.239 154.201L151.862 157.043H143.877C143.494 157.043 143.122 156.92 142.813 156.694C142.505 156.467 142.277 156.148 142.163 155.782C142.049 155.417 142.055 155.025 142.18 154.663C142.305 154.302 142.542 153.989 142.857 153.772L149.234 149.37V146.498L155.941 146.898L156.787 157.043Z" fill="#2F2E41"/>
    <path d="M179.514 144.476L176.145 146.98L164.879 135.183L169.851 131.487L179.514 144.476Z" fill="#9E616A"/>
    <path d="M185.632 148.989L183.216 150.785L181.089 148.825L181.68 151.926L175.272 156.689C174.965 156.917 174.593 157.041 174.21 157.043C173.828 157.045 173.454 156.925 173.145 156.7C172.835 156.475 172.606 156.156 172.49 155.792C172.375 155.427 172.378 155.035 172.501 154.673L174.991 147.337L173.276 145.032L178.897 141.353L185.632 148.989Z" fill="#2F2E41"/>
    <path d="M159.459 66.2607C159.459 66.2607 167.425 73.1396 163.75 92.7493L159.263 111.964L173.896 136.229L169.23 141.902L150.207 115.638L143.313 99.4754L141.379 70.7091L159.459 66.2607Z" fill="#2F2E41"/>
    <path d="M147.112 104.081L146.633 111.498L148.099 143.103L154.998 141.902L156.317 119.399L147.112 104.081Z" fill="#2F2E41"/>
    <path d="M58.5747 153.577L62.3293 153.577L64.1152 139.103L58.5742 139.103L58.5747 153.577Z" fill="#FFB6B6"/>
    <path d="M57.6172 152.352L58.674 152.352L62.7997 150.675L65.011 152.352H65.0113C66.261 152.352 67.4594 152.848 68.3431 153.731C69.2267 154.614 69.7232 155.812 69.7233 157.061V157.214L57.6174 157.215L57.6172 152.352Z" fill="#2F2E41"/>
    <path d="M73.123 151.213L76.7851 152.039L81.7173 138.313L76.3124 137.093L73.123 151.213Z" fill="#FFB6B6"/>
    <path d="M72.4601 149.806L73.491 150.039L77.885 149.312L79.6724 151.434L79.6727 151.434C80.8917 151.709 81.9513 152.457 82.6186 153.513C83.2859 154.569 83.5062 155.847 83.231 157.066L83.1973 157.215L71.3887 154.55L72.4601 149.806Z" fill="#2F2E41"/>
    <path d="M53.8201 65.0859C52.0598 70.3924 52.2459 76.1525 54.2432 82.3346L55.0969 117.142C55.0969 117.142 53.8249 139.967 57.9297 147.999H63.8827L66.8302 115.057L67.2003 92.9459L79.9631 111.6L71.8341 147.461L79.1609 148.115L92.3521 109.198L76.0768 71.4421L53.8201 65.0859Z" fill="#2F2E41"/>
    <path d="M122.472 49.9713C127.025 45.87 133.798 43.8078 139.479 46.1075C133.651 49.3415 129.156 54.5317 126.788 60.7597C125.884 63.1649 125.128 65.9341 122.904 67.2218C121.52 68.0231 119.798 68.0622 118.246 67.6754C116.694 67.2886 115.271 66.5132 113.868 65.7456L113.469 65.7365C115.261 59.8777 117.918 54.0727 122.472 49.9713Z" fill="#E6E6E6"/>
    <path d="M139.448 46.2318C134.416 46.8817 129.718 49.0998 126.019 52.571C125.209 53.3041 124.521 54.1602 123.978 55.1077C123.479 56.0478 123.241 57.1043 123.289 58.1674C123.313 59.1596 123.453 60.1715 123.236 61.1524C123.118 61.6528 122.895 62.1225 122.582 62.5307C122.269 62.9389 121.873 63.2763 121.42 63.5209C120.309 64.1597 119.033 64.3611 117.78 64.5147C116.387 64.6853 114.939 64.8404 113.734 65.6209C113.588 65.7155 113.449 65.4835 113.595 65.389C115.692 64.0311 118.345 64.5252 120.599 63.6189C121.651 63.196 122.582 62.4537 122.912 61.3314C123.2 60.35 123.056 59.3063 123.022 58.3019C122.961 57.2655 123.154 56.2298 123.585 55.2851C124.078 54.313 124.732 53.4319 125.521 52.6793C127.269 50.9568 129.277 49.5197 131.472 48.4207C133.97 47.1526 136.667 46.3209 139.445 45.9617C139.617 45.9396 139.619 46.2098 139.448 46.2318Z" fill="white"/>
    <path d="M127.143 51.3833C126.644 50.684 126.411 49.8304 126.484 48.9749C126.557 48.1194 126.932 47.3177 127.542 46.713C127.666 46.5911 127.861 46.7777 127.737 46.8998C127.168 47.4618 126.819 48.2086 126.752 49.0054C126.686 49.8022 126.907 50.5965 127.375 51.2449C127.476 51.386 127.244 51.5236 127.143 51.3833Z" fill="white"/>
    <path d="M123.209 57.6663C124.938 57.9725 126.719 57.616 128.197 56.668C128.343 56.574 128.482 56.8059 128.335 56.8999C126.796 57.8835 124.941 58.2507 123.143 57.9281C122.971 57.8972 123.038 57.6356 123.209 57.6663Z" fill="white"/>
    <path d="M133.992 47.5099C134.128 47.8206 134.34 48.0926 134.607 48.3015C134.875 48.5103 135.19 48.6495 135.525 48.7064C135.697 48.7351 135.629 48.9967 135.459 48.9682C135.089 48.9036 134.741 48.7495 134.445 48.5194C134.149 48.2893 133.914 47.9903 133.76 47.6483C133.742 47.6173 133.738 47.5809 133.746 47.5465C133.755 47.5121 133.777 47.4823 133.806 47.4632C133.837 47.445 133.874 47.4397 133.909 47.4485C133.943 47.4572 133.973 47.4793 133.992 47.5099Z" fill="white"/>
    <path d="M145.735 65.886C145.627 65.8712 145.52 65.8563 145.41 65.8431C143.961 65.6508 142.498 65.5765 141.037 65.621C140.924 65.6227 140.809 65.626 140.696 65.6309C137.177 65.7756 133.714 66.5722 130.485 67.9803C129.201 68.5418 127.961 69.2001 126.777 69.9496C125.141 70.9848 123.45 72.2372 121.621 72.6594C121.431 72.7056 121.238 72.74 121.044 72.7623L113.489 66.2239C113.479 66.2004 113.468 66.1786 113.458 66.1551L113.145 65.9078C113.203 65.8649 113.264 65.8216 113.323 65.7787C113.357 65.7537 113.392 65.7301 113.426 65.705C113.449 65.6888 113.472 65.6726 113.492 65.6567C113.499 65.6513 113.507 65.6459 113.513 65.6422C113.533 65.6262 113.553 65.6135 113.572 65.5993C113.915 65.3565 114.26 65.1157 114.608 64.8769C114.609 64.8752 114.609 64.8752 114.612 64.875C117.243 63.0302 120.084 61.5038 123.075 60.328C123.165 60.2941 123.256 60.2584 123.349 60.2275C124.696 59.727 126.082 59.3372 127.492 59.0623C128.265 58.9142 129.045 58.8053 129.828 58.7361C131.854 58.561 133.895 58.7055 135.875 59.1643C139.824 60.0794 143.435 62.2465 145.574 65.6262C145.629 65.7127 145.682 65.7978 145.735 65.886Z" fill="#E6E6E6"/>
    <path d="M145.635 65.9671C141.226 63.4581 136.139 62.4014 131.095 62.9471C130.007 63.0453 128.941 63.3144 127.937 63.7443C126.972 64.1947 126.146 64.895 125.544 65.7726C124.966 66.5795 124.468 67.4719 123.704 68.1243C123.308 68.4525 122.847 68.6933 122.351 68.8309C121.855 68.9685 121.336 68.9998 120.827 68.9227C119.555 68.7637 118.415 68.1571 117.322 67.5252C116.107 66.8236 114.857 66.0756 113.425 65.9736C113.251 65.9612 113.281 65.6928 113.454 65.7051C115.946 65.8826 117.767 67.8737 120.113 68.5068C121.207 68.8022 122.398 68.7697 123.337 68.0718C124.158 67.4616 124.672 66.5419 125.25 65.7197C125.825 64.855 126.603 64.1442 127.516 63.6494C128.495 63.1697 129.549 62.8601 130.632 62.7338C133.065 62.4106 135.534 62.4717 137.949 62.9151C140.707 63.4059 143.361 64.3647 145.796 65.75C145.947 65.8358 145.785 66.0524 145.635 65.9671Z" fill="white"/>
    <path d="M132.707 62.6756C132.73 61.8173 133.058 60.9952 133.632 60.3562C134.206 59.7171 134.988 59.3027 135.839 59.1869C136.011 59.1641 136.055 59.4307 135.882 59.4535C135.09 59.5599 134.361 59.946 133.828 60.5421C133.295 61.1383 132.993 61.9053 132.976 62.7047C132.972 62.8784 132.703 62.8483 132.707 62.6756Z" fill="white"/>
    <path d="M125.782 65.3249C126.979 66.61 128.615 67.3972 130.366 67.5296C130.54 67.5425 130.511 67.811 130.337 67.798C128.515 67.6568 126.814 66.8342 125.572 65.4942C125.454 65.3664 125.665 65.1978 125.782 65.3249Z" fill="white"/>
    <path d="M140.509 63.7043C140.431 64.0346 140.436 64.379 140.524 64.7068C140.612 65.0346 140.78 65.3355 141.013 65.5824C141.133 65.7086 140.921 65.877 140.802 65.7516C140.546 65.4777 140.361 65.1452 140.263 64.7832C140.165 64.4213 140.158 64.0409 140.241 63.6753C140.246 63.6402 140.264 63.6082 140.291 63.586C140.319 63.5638 140.354 63.5529 140.39 63.5556C140.425 63.5596 140.458 63.5775 140.48 63.6053C140.502 63.6332 140.513 63.6688 140.509 63.7043Z" fill="white"/>
    <path d="M13.0404 153.314C12.6858 154.644 11.7539 155.752 10.6288 156.559C10.4454 156.691 10.2571 156.813 10.0663 156.928C10.0076 156.962 9.94891 156.999 9.88777 157.03C9.82173 157.069 9.75569 157.106 9.68966 157.14H4.39939C4.304 156.947 4.21107 156.752 4.11813 156.559C1.85087 151.796 0.258652 146.658 0.530136 141.424C0.637844 139.393 1.06456 137.393 1.79461 135.495C3.24742 131.713 5.89867 128.44 9.54536 126.792C9.63585 126.751 9.73124 126.709 9.82418 126.67C9.79483 126.775 9.76548 126.878 9.73613 126.983C9.3449 128.392 9.06844 129.83 8.90945 131.283C8.89477 131.395 8.88254 131.508 8.87276 131.623C8.5253 135.128 8.83383 138.667 9.7826 142.059C9.78505 142.067 9.78748 142.076 9.78994 142.084C9.99784 142.834 10.2392 143.573 10.5139 144.301C10.7291 144.875 10.9615 145.443 11.2158 146C12.2773 148.34 13.7008 150.833 13.0404 153.314Z" fill="#E6E6E6"/>
    <path d="M9.89002 126.78C9.83866 126.848 9.78728 126.914 9.73593 126.983C8.66169 128.406 7.74949 129.944 7.0162 131.569C6.97707 131.65 6.94038 131.73 6.90859 131.814C5.90385 134.083 5.25858 136.494 4.99597 138.962C4.99313 138.979 4.9915 138.996 4.99108 139.013C4.92994 139.59 4.89325 140.172 4.87857 140.754C4.82419 141.844 4.94222 142.937 5.22832 143.991C5.48919 144.851 5.94632 145.639 6.56373 146.293C6.62487 146.359 6.68602 146.425 6.75206 146.489C6.80097 146.54 6.85478 146.592 6.90614 146.641C7.40019 147.112 7.94071 147.55 8.40542 148.056C8.61841 148.283 8.81076 148.528 8.98018 148.789C9.25057 149.227 9.42523 149.717 9.49268 150.227C9.56012 150.736 9.51883 151.255 9.37151 151.747C9.03888 152.984 8.27824 154.028 7.50047 155.023C7.11159 155.522 6.71048 156.026 6.36317 156.559C6.236 156.749 6.1186 156.942 6.01099 157.14H5.70282C5.80554 156.942 5.91805 156.749 6.04034 156.559C6.93306 155.153 8.20243 153.945 8.86035 152.398C9.30549 151.354 9.44001 150.171 8.87747 149.146C8.71261 148.848 8.51311 148.571 8.28314 148.32C7.83556 147.814 7.29993 147.381 6.81322 146.924C6.69093 146.809 6.57108 146.692 6.45613 146.57C5.84668 145.951 5.3764 145.209 5.0767 144.394C4.73729 143.359 4.57683 142.273 4.60221 141.184C4.60221 140.49 4.6389 139.791 4.70738 139.096C4.71472 139.008 4.7245 138.918 4.73429 138.827C5.23446 134.458 6.89558 130.303 9.54518 126.792C9.59409 126.724 9.64545 126.658 9.69681 126.592C9.80197 126.455 9.99519 126.646 9.89002 126.78Z" fill="white"/>
    <path d="M4.83412 139.119C3.98697 138.977 3.21798 138.538 2.66448 137.882C2.11099 137.225 1.80903 136.393 1.81253 135.535C1.813 135.5 1.82704 135.466 1.85171 135.441C1.87637 135.416 1.90973 135.402 1.94475 135.401C1.97978 135.401 2.01373 135.413 2.03946 135.437C2.06519 135.461 2.08068 135.494 2.08268 135.529C2.07795 136.328 2.3593 137.103 2.87596 137.714C3.39263 138.324 4.11057 138.73 4.90021 138.857C5.07177 138.885 5.00471 139.147 4.83412 139.119Z" fill="white"/>
    <path d="M6.4954 146.343C7.93467 145.337 8.94187 143.826 9.31618 142.111C9.35313 141.941 9.61502 142.008 9.57813 142.177C9.18528 143.961 8.13393 145.531 6.6339 146.574C6.49086 146.674 6.35314 146.441 6.4954 146.343Z" fill="white"/>
    <path d="M6.93481 131.541C7.25112 131.664 7.59312 131.707 7.93009 131.665C8.26705 131.624 8.58845 131.5 8.86539 131.303C9.00711 131.202 9.14467 131.435 9.00388 131.535C8.69689 131.751 8.34177 131.888 7.96958 131.934C7.59738 131.981 7.21942 131.936 6.86872 131.803C6.83462 131.793 6.80551 131.77 6.78732 131.74C6.76913 131.71 6.76322 131.673 6.7708 131.639C6.77972 131.604 6.80196 131.574 6.83267 131.556C6.86338 131.538 6.90009 131.532 6.93481 131.541Z" fill="white"/>
    <path d="M28.238 136.233C28.1524 136.299 28.0643 136.365 27.9787 136.434C26.8175 137.322 25.7304 138.303 24.7282 139.367C24.65 139.448 24.5717 139.531 24.4959 139.614L24.4934 139.617C22.1171 142.195 20.2381 145.191 18.9513 148.452L18.9439 148.474C18.9415 148.481 18.939 148.486 18.9366 148.493C18.4265 149.799 18.0153 151.141 17.7063 152.508C17.408 153.842 17.1634 155.272 16.6962 156.558C16.6253 156.756 16.547 156.952 16.4639 157.14H5.58984C5.62653 156.947 5.66566 156.752 5.7048 156.558C6.25795 153.726 7.12248 150.963 8.28267 148.32C8.3218 148.232 8.36093 148.144 8.40496 148.056C9.00389 146.75 9.70816 145.495 10.5108 144.303L10.511 144.302L10.5115 144.301L10.5123 144.301L10.5132 144.301C10.954 143.651 11.4274 143.023 11.9318 142.421C13.2399 140.865 14.785 139.525 16.5103 138.451C16.5201 138.443 16.5324 138.438 16.5421 138.431C19.976 136.302 24.0459 135.287 27.9371 136.165H27.9396C28.0398 136.187 28.1377 136.209 28.238 136.233Z" fill="#E6E6E6"/>
    <path d="M28.227 136.363C28.1438 136.385 28.0607 136.41 27.98 136.434C26.2659 136.924 24.6114 137.602 23.0468 138.456C22.9685 138.497 22.8903 138.541 22.812 138.585C20.6498 139.792 18.6871 141.325 16.9934 143.13C16.9921 143.131 16.9913 143.133 16.991 143.135C16.9714 143.154 16.9494 143.176 16.9323 143.196C16.541 143.617 16.1643 144.054 15.8072 144.504C15.1087 145.343 14.5459 146.285 14.1392 147.298C13.8284 148.142 13.7187 149.047 13.8188 149.941C13.8261 150.031 13.8384 150.119 13.8506 150.21C13.8604 150.281 13.8702 150.352 13.8824 150.425C14.0438 151.405 14.3226 152.388 14.2444 153.388C14.1967 153.9 14.0411 154.397 13.7878 154.845C13.5344 155.292 13.1891 155.682 12.7744 155.987C12.4926 156.204 12.1913 156.396 11.8744 156.559C11.4213 156.792 10.9492 156.987 10.4632 157.14H9.50195C9.63158 157.104 9.75876 157.067 9.88839 157.03C10.3484 156.901 10.8001 156.743 11.2409 156.559C11.4928 156.453 11.7378 156.333 11.9747 156.197C12.9579 155.632 13.7772 154.767 13.9484 153.61C14.0976 152.598 13.809 151.586 13.6378 150.596C13.6085 150.425 13.5816 150.256 13.5669 150.088C13.4501 149.23 13.521 148.358 13.7748 147.53C14.1267 146.499 14.6528 145.534 15.3303 144.68C15.7494 144.124 16.1968 143.589 16.6706 143.079C16.7293 143.013 16.7904 142.947 16.854 142.881C18.5833 141.062 20.5801 139.518 22.7753 138.302H22.7778C24.41 137.394 26.1417 136.677 27.9384 136.165H27.9408C28.0216 136.141 28.1047 136.116 28.1854 136.094C28.3542 136.05 28.3933 136.317 28.227 136.363Z" fill="white"/>
    <path d="M16.7559 143.171C16.1652 142.548 15.8154 141.735 15.769 140.878C15.7225 140.02 15.9825 139.174 16.5025 138.491C16.6082 138.353 16.8276 138.511 16.7218 138.649C16.2364 139.284 15.9943 140.072 16.0392 140.87C16.084 141.669 16.4129 142.425 16.9664 143.002C17.0865 143.128 16.8754 143.296 16.7559 143.171Z" fill="white"/>
    <path d="M13.7335 149.94C15.4884 150.003 17.2027 149.403 18.5345 148.259C18.6663 148.145 18.8355 148.356 18.7038 148.469C17.3157 149.657 15.5305 150.278 13.7045 150.208C13.5304 150.201 13.5604 149.933 13.7335 149.94Z" fill="white"/>
    <path d="M23.0003 138.385C23.1786 138.674 23.4258 138.914 23.7199 139.084C24.0139 139.253 24.3455 139.347 24.6848 139.357C24.8589 139.362 24.8287 139.63 24.6558 139.626C24.2809 139.613 23.9148 139.509 23.5895 139.322C23.2643 139.135 22.9897 138.872 22.7898 138.554C22.7685 138.526 22.7587 138.491 22.7625 138.455C22.7663 138.42 22.7835 138.388 22.8104 138.365C22.8384 138.342 22.874 138.332 22.9096 138.336C22.9451 138.34 22.9777 138.357 23.0003 138.385Z" fill="white"/>
    <path d="M112.122 42.3246C111.871 42.6546 111.55 42.9256 111.183 43.1185C110.816 43.3114 110.411 43.4215 109.997 43.441C109.583 43.4605 109.169 43.389 108.786 43.2315C108.402 43.074 108.057 42.8343 107.776 42.5294L98.5312 46.5484L99.4318 41.3898L108.073 38.3641C108.617 37.9263 109.303 37.703 110 37.7367C110.698 37.7704 111.358 38.0587 111.857 38.5469C112.357 39.035 112.659 39.6892 112.708 40.3855C112.757 41.0818 112.548 41.7717 112.122 42.3246Z" fill="#FFB8B8"/>
    <path d="M105.952 43.9356L84.4788 53.4963L84.4327 53.4798L59.9583 44.7624C58.1353 43.81 56.7454 42.1972 56.0733 40.254C55.4012 38.3108 55.4977 36.1844 56.343 34.31C56.8116 33.2744 57.4942 32.3497 58.3461 31.5968C59.1979 30.8439 60.1997 30.2799 61.2853 29.9418C62.371 29.6038 63.516 29.4994 64.6449 29.6356C65.7738 29.7718 66.8611 30.1454 67.8351 30.7318L86.0486 41.6984L103.71 39.4105L105.952 43.9356Z" fill="#E6E6E6"/>
    <path d="M211.5 157.338C211.5 157.377 211.492 157.414 211.478 157.45C211.463 157.485 211.442 157.517 211.415 157.544C211.388 157.571 211.355 157.593 211.32 157.607C211.285 157.622 211.247 157.629 211.209 157.629H0.79886C0.721668 157.629 0.647641 157.599 0.593059 157.544C0.538476 157.489 0.507812 157.415 0.507812 157.338C0.507812 157.261 0.538476 157.187 0.593059 157.133C0.647641 157.078 0.721668 157.047 0.79886 157.047H211.209C211.247 157.047 211.285 157.055 211.32 157.069C211.355 157.084 211.388 157.105 211.415 157.132C211.442 157.159 211.463 157.191 211.478 157.227C211.492 157.262 211.5 157.3 211.5 157.338Z" fill="#CCCCCC"/>
    <path d="M77.1374 72.5572L55.4906 69.0963C54.9229 68.9146 54.4012 68.6122 53.9615 68.2099C53.5217 67.8076 53.1742 67.315 52.9429 66.7658C52.7116 66.2166 52.6019 65.6239 52.6213 65.0284C52.6408 64.4328 52.789 63.8485 53.0557 63.3156L54.0374 61.353L53.656 40.7329C53.6101 38.0507 54.2716 35.4038 55.5741 33.0583C56.8766 30.7128 58.7741 28.7516 61.0757 27.3718L63.1867 26.1102L64.2535 23.4023L74.0905 23.6422L74.1192 27.1936L77.6421 32.8086L77.642 32.8319L77.4209 63.3937L76.45 66.5477L77.9181 70.2161L77.1374 72.5572Z" fill="#E6E6E6"/>
    <path d="M70.0727 20.0352C75.009 20.0352 79.0107 16.0354 79.0107 11.1013C79.0107 6.16731 75.009 2.16748 70.0727 2.16748C65.1364 2.16748 61.1348 6.16731 61.1348 11.1013C61.1348 16.0354 65.1364 20.0352 70.0727 20.0352Z" fill="#FFB8B8"/>
    <path d="M60.7662 13.0489C60.4996 11.9264 60.622 10.3467 60.7726 9.21642C61.1676 6.25316 62.814 3.43605 65.3153 1.76737C65.7896 1.40731 66.3532 1.18345 66.9453 1.11991C67.5371 1.09522 68.1785 1.41185 68.3601 1.9753C68.5092 1.60342 68.7329 1.26602 69.0175 0.983933C69.3021 0.701842 69.6416 0.481044 70.0149 0.335169C70.7647 0.0480067 71.5712 -0.0605913 72.3703 0.0179834C73.9193 0.145605 75.4049 0.690016 76.6693 1.59344C77.9337 2.49686 78.9298 3.72559 79.552 5.14923C79.7907 5.71611 80.4575 3.62224 80.76 4.15785C81.0379 4.71459 81.5229 5.14047 82.111 5.34435C82.7037 5.50966 82.9444 7.95046 83.1777 7.38131C83.3586 7.80193 83.4302 8.26148 83.3856 8.71717C83.341 9.17287 83.1818 9.60987 82.9228 9.9875C82.6638 10.3651 82.3133 10.6711 81.9041 10.8769C81.4949 11.0827 81.0403 11.1816 80.5825 11.1645C79.9793 11.142 79.4025 10.9202 78.8064 10.8247C76.6749 10.4833 74.4137 12.0283 73.9581 14.1374C73.7949 13.5274 73.5343 12.9479 73.1863 12.421C73.0096 12.1589 72.7729 11.9428 72.4958 11.7907C72.2187 11.6385 71.9093 11.5546 71.5933 11.5461C70.9868 11.5688 70.4537 11.9651 70.0603 12.4269C69.6668 12.8887 69.3712 13.4275 68.9748 13.8868C67.8117 15.2346 66.2386 18.3776 64.5811 18.1484C63.273 17.9675 61.1302 14.5817 60.7662 13.0489Z" fill="#2F2E41"/>
    <path d="M124.101 52.4483C124.164 52.041 124.08 51.6247 123.865 51.2732C123.649 50.9218 123.317 50.6579 122.925 50.5283L98.8555 42.5153C98.6247 42.4382 98.3804 42.4102 98.1381 42.433L92.1051 43.0033L88.6434 43.3315L82.2553 43.9349C81.8696 43.9718 81.507 44.1356 81.2245 44.4006C80.9419 44.6656 80.7553 45.0168 80.694 45.3992L77.4505 65.6503C77.3891 66.0453 77.4644 66.4495 77.6638 66.796C77.8632 67.1425 78.1748 67.4106 78.5473 67.5562L102.868 76.9399C102.983 76.9842 103.101 77.0161 103.222 77.0349C103.398 77.0634 103.578 77.0648 103.754 77.0389L119.47 74.7107C119.841 74.6571 120.184 74.4855 120.449 74.2213C120.715 73.9571 120.888 73.6144 120.943 73.2441L124.101 52.4483Z" fill="white"/>
    <path d="M79.0986 66.1292L103.42 75.5125C103.455 75.5265 103.494 75.531 103.531 75.5256L119.245 73.1977C119.292 73.1913 119.335 73.1699 119.368 73.1368C119.401 73.1036 119.423 73.0605 119.43 73.014L122.59 52.2179C122.597 52.1671 122.586 52.1154 122.559 52.0716C122.533 52.0279 122.491 51.9947 122.443 51.9779L122.281 51.9232L98.3715 43.9668C98.3606 43.9629 98.3494 43.9602 98.3379 43.9587C98.3194 43.9552 98.3005 43.9543 98.2817 43.9557L83.5667 45.3475L82.399 45.4571C82.3511 45.4622 82.3062 45.4828 82.2711 45.5158C82.236 45.5488 82.2126 45.5924 82.2046 45.6399L78.9617 65.8902C78.9538 65.9397 78.9631 65.9904 78.988 66.0339C79.0129 66.0773 79.0519 66.111 79.0986 66.1292Z" fill="#E60C2B"/>
    <path d="M83.5684 45.3475L98.2833 43.9557C98.3021 43.9543 98.321 43.9552 98.3396 43.9587C98.351 43.9602 98.3623 43.9629 98.3732 43.9668L122.283 51.9232L115.976 52.5905L113.616 52.839L106.899 53.5483C106.88 53.5493 106.86 53.549 106.84 53.5476C106.828 53.544 106.817 53.5404 106.802 53.5366L83.5684 45.3475Z" fill="#2F2E41"/>
    <path d="M78.5482 67.5576L102.869 76.9408C102.984 76.9849 103.103 77.016 103.224 77.0337C103.4 77.0628 103.58 77.065 103.757 77.0403L119.47 74.7124C119.841 74.6585 120.185 74.4866 120.45 74.2222C120.716 73.9579 120.889 73.6151 120.944 73.2447L124.102 52.4484C124.149 52.1418 124.113 51.8283 124 51.5397C123.984 51.5014 123.968 51.463 123.949 51.4269C123.824 51.1634 123.633 50.9364 123.395 50.7674C123.252 50.6646 123.094 50.5841 122.927 50.5286L122.898 50.5185L98.8581 42.5153C98.7599 42.484 98.6596 42.4596 98.5579 42.4424C98.419 42.4227 98.2782 42.42 98.1386 42.4343L92.1065 43.0026L88.6451 43.3326L82.2559 43.9356C81.9945 43.96 81.7421 44.0434 81.5176 44.1794C81.5003 44.1878 81.4837 44.1978 81.4681 44.2091C81.457 44.2163 81.4464 44.2244 81.4363 44.2331C81.2403 44.3668 81.0736 44.539 80.9463 44.7392C80.819 44.9394 80.7339 45.1635 80.696 45.3976L77.4505 65.6502C77.3891 66.0455 77.4645 66.4499 77.664 66.7967C77.8636 67.1434 78.1755 67.4118 78.5482 67.5576ZM81.1266 45.4682C81.166 45.2255 81.2738 44.999 81.4372 44.8152C81.4867 44.756 81.5421 44.7021 81.6025 44.6541C81.7674 44.5208 81.9625 44.4298 82.1708 44.3892C82.2119 44.3807 82.2535 44.3748 82.2953 44.3716L93.0531 43.3558L98.1806 42.8681C98.2154 42.864 98.2473 42.8646 98.2794 42.8628C98.357 42.8611 98.4347 42.8669 98.5112 42.88C98.5816 42.8891 98.6508 42.9056 98.7178 42.9292L122.787 50.9425C122.806 50.9493 122.822 50.9558 122.841 50.9625C123.06 51.0439 123.252 51.1837 123.397 51.3668C123.511 51.5069 123.595 51.6696 123.642 51.8442C123.69 52.0189 123.699 52.2015 123.671 52.3802L120.511 73.1787C120.47 73.4561 120.34 73.7128 120.141 73.9109C119.943 74.1091 119.686 74.2382 119.408 74.2792L103.692 76.6068C103.468 76.6391 103.238 76.6129 103.026 76.531L78.7051 67.1502C78.4263 67.0404 78.1932 66.8391 78.0439 66.5794C77.8946 66.3197 77.838 66.017 77.8835 65.721L81.1266 45.4682Z" fill="#3F3D56"/>
    <path d="M81.3828 44.3434C81.3957 44.3065 81.4183 44.2739 81.4484 44.249C81.4583 44.241 81.4689 44.2338 81.4799 44.2274C81.4901 44.2235 81.5005 44.2171 81.5108 44.2132C81.5596 44.1936 81.6139 44.1926 81.6633 44.2106L82.1696 44.3891L106.9 53.1091L112.688 52.4978L115.927 52.1564L122.783 51.4309L123.396 51.3667L123.515 51.3535C123.566 51.3488 123.618 51.3622 123.66 51.3914C123.703 51.4206 123.734 51.4637 123.748 51.5133C123.751 51.5247 123.753 51.5364 123.754 51.5483C123.759 51.5953 123.749 51.6428 123.725 51.6834C123.701 51.7241 123.664 51.7557 123.62 51.7736C123.6 51.7817 123.58 51.7872 123.559 51.79L122.725 51.8773L115.974 52.5906L113.614 52.8392L106.898 53.5484C106.878 53.5494 106.858 53.5492 106.839 53.5477C106.827 53.5441 106.815 53.5405 106.801 53.5367L81.6013 44.654L81.5157 44.6238C81.4961 44.6173 81.4779 44.6073 81.4621 44.5941C81.4239 44.5661 81.3957 44.5268 81.3814 44.4817C81.3672 44.4366 81.3677 44.3882 81.3828 44.3434Z" fill="#3F3D56"/>
    <path d="M103.29 77.0971C103.233 77.088 103.182 77.0568 103.148 77.0103C103.114 76.9638 103.099 76.9058 103.108 76.8488L106.658 53.2982C106.667 53.2409 106.698 53.1894 106.745 53.155C106.791 53.1206 106.85 53.1061 106.907 53.1147L106.909 53.1151C106.966 53.1242 107.017 53.1554 107.051 53.2019C107.085 53.2484 107.099 53.3064 107.091 53.3634L103.54 76.914C103.532 76.9713 103.5 77.0228 103.454 77.0572C103.407 77.0916 103.349 77.1061 103.291 77.0975L103.29 77.0971Z" fill="#3F3D56"/>
    <path d="M112.289 75.6032L109.928 75.8523L112.69 52.4971C112.69 52.4971 115.844 51.9264 115.928 52.1552C115.98 52.2919 112.312 75.4534 112.289 75.6032Z" fill="#3F3D56"/>
    <path d="M81.5167 44.6235L81.4531 55.2743L100.317 62.4587L107.091 53.3635L81.5167 44.6235Z" fill="#3F3D56"/>
    <path d="M123.398 51.3669C123.24 51.1688 123.028 51.0213 122.787 50.9424L98.7192 42.9293C98.6516 42.9066 98.5823 42.8897 98.5118 42.8788C98.435 42.8656 98.3572 42.8598 98.2793 42.8614L98.3183 42.6176L98.5593 42.4432L104.275 38.3071L123.362 44.1541L123.395 50.7673L123.398 51.3669Z" fill="#3F3D56"/>
    <path d="M82.4777 61.7214C82.5048 61.724 82.5315 61.7296 82.5574 61.7381L89.9421 64.1624C90.0346 64.1928 90.1112 64.2586 90.1551 64.3454C90.1991 64.4322 90.2067 64.5328 90.1763 64.6252C90.146 64.7177 90.0802 64.7942 89.9933 64.8381C89.9065 64.882 89.8058 64.8897 89.7133 64.8593L82.3286 62.435C82.2428 62.4068 82.1705 62.3481 82.1254 62.27C82.0802 62.1919 82.0655 62.0999 82.0839 62.0116C82.1024 61.9233 82.1527 61.8449 82.2253 61.7913C82.298 61.7378 82.3878 61.7129 82.4777 61.7214Z" fill="white"/>
    <path d="M112.275 106.401C113.896 106.401 115.21 105.088 115.21 103.468C115.21 101.848 113.896 100.534 112.275 100.534C110.654 100.534 109.34 101.848 109.34 103.468C109.34 105.088 110.654 106.401 112.275 106.401Z" fill="#F2F2F2"/>
    <path d="M37.433 117.158C39.0539 117.158 40.368 115.844 40.368 114.224C40.368 112.604 39.0539 111.291 37.433 111.291C35.8121 111.291 34.498 112.604 34.498 114.224C34.498 115.844 35.8121 117.158 37.433 117.158Z" fill="#F2F2F2"/>
    <path d="M98.5775 20.104C100.198 20.104 101.512 18.7906 101.512 17.1704C101.512 15.5502 100.198 14.2368 98.5775 14.2368C96.9566 14.2368 95.6426 15.5502 95.6426 17.1704C95.6426 18.7906 96.9566 20.104 98.5775 20.104Z" fill="#F2F2F2"/>
    <path d="M103.392 66.036C103.012 66.2012 102.6 66.281 102.185 66.2698C101.77 66.2586 101.363 66.1567 100.992 65.9712C100.621 65.7858 100.296 65.5213 100.038 65.1964C99.7805 64.8715 99.5973 64.494 99.5014 64.0907L89.4707 63.0778L92.7799 59.0181L101.798 60.6024C102.486 60.4863 103.194 60.6267 103.786 60.997C104.378 61.3672 104.813 61.9417 105.009 62.6115C105.206 63.2812 105.15 63.9998 104.852 64.6309C104.554 65.2621 104.034 65.762 103.392 66.036Z" fill="#FFB8B8"/>
    <path d="M97.224 64.4257L73.8156 62.2699L73.7835 62.233L56.6995 42.6667C55.5751 40.9449 55.1518 38.8588 55.5162 36.8352C55.8805 34.8117 57.005 33.004 58.6593 31.7821C59.5747 31.1078 60.6225 30.6348 61.7339 30.3945C62.8453 30.1541 63.995 30.1517 65.1074 30.3875C66.2198 30.6233 67.2696 31.0918 68.1877 31.7624C69.1059 32.4329 69.8715 33.2902 70.4343 34.2779L80.9567 52.7461L97.4819 59.3826L97.224 64.4257Z" fill="#E6E6E6"/>
    <path d="M155.977 26.7976C155.395 22.5356 154.666 17.9597 151.659 14.883C150.705 13.9068 149.563 13.1339 148.301 12.6108C147.04 12.0877 145.686 11.8253 144.321 11.8394C142.955 11.8535 141.607 12.1439 140.357 12.693C139.107 13.242 137.981 14.0385 137.047 15.0342C134.858 17.3686 133.891 20.6464 133.802 23.8448C133.714 27.0432 134.427 30.206 135.217 33.3065C139.401 33.3901 143.554 32.573 147.394 30.9109C148.354 30.4943 149.299 30.0234 150.313 29.7653C151.328 29.5072 152.051 30.1566 152.995 30.6095L153.513 29.6181C153.937 30.4069 155.25 30.173 155.726 29.4146C156.202 28.6562 156.098 27.6849 155.977 26.7976Z" fill="#2F2E41"/>
    <path d="M139.392 50.5866L122.302 50.952C122.039 50.4985 121.651 50.1311 121.183 49.8943C120.716 49.6576 120.189 49.5618 119.668 49.6186C119.147 49.6754 118.654 49.8824 118.249 50.2143C117.843 50.5462 117.543 50.9887 117.384 51.4881C117.226 51.9875 117.216 52.5221 117.356 53.0269C117.496 53.5318 117.78 53.9851 118.173 54.3317C118.566 54.6783 119.051 54.9032 119.57 54.9791C120.088 55.055 120.618 54.9787 121.094 54.7593C123.36 54.8881 141.094 57.4038 142.151 55.7825C143.225 54.137 148.957 48.3296 148.957 48.3296L144.551 42.0605L139.392 50.5866Z" fill="#9E616A"/>
    <path d="M143.557 31.0147C147.992 31.0147 151.587 27.4214 151.587 22.9888C151.587 18.5562 147.992 14.9629 143.557 14.9629C139.122 14.9629 135.527 18.5562 135.527 22.9888C135.527 27.4214 139.122 31.0147 143.557 31.0147Z" fill="#9E616A"/>
    <path d="M156.418 38.4311C155.472 36.5488 155.012 34.2233 152.995 33.6131C151.632 33.201 146.123 33.8186 144.881 34.5142C142.816 35.6713 144.687 37.8395 143.469 39.8685C142.145 42.0743 138.545 46.5009 137.221 48.7066C136.31 50.223 139.377 54.674 138.885 56.3727C138.393 58.0713 138.369 59.9779 139.208 61.5351C139.958 62.929 138.872 64.162 139.627 65.5535C140.412 67.0006 141.376 72.4115 140.645 73.8869L140.156 75.3537C145.01 75.6387 149.091 69.8423 153.915 69.2317C155.114 69.0801 156.358 68.882 157.345 68.1868C158.799 67.1628 159.374 65.3047 159.734 63.5632C161.463 55.0507 160.296 46.2046 156.418 38.4311Z" fill="#3F3D56"/>
    <path d="M163.695 58.3068C163.019 56.4621 161.795 48.3969 161.795 48.3969L154.134 48.1724L157.879 57.4064L147.658 71.7085C147.658 71.7085 147.677 71.7399 147.711 71.7959C147.174 71.7097 146.623 71.7877 146.131 72.0196C145.638 72.2515 145.228 72.6266 144.952 73.0957C144.677 73.5649 144.549 74.1062 144.586 74.649C144.624 75.1917 144.824 75.7105 145.161 76.1376C145.499 76.5646 145.957 76.8799 146.476 77.0423C146.996 77.2047 147.552 77.2066 148.073 77.0477C148.593 76.8888 149.054 76.5766 149.394 76.1518C149.734 75.7271 149.938 75.2096 149.979 74.6672C150.016 74.6887 150.06 74.6965 150.103 74.6892C150.146 74.6818 150.185 74.6598 150.213 74.627C151.35 73.2004 164.371 60.1515 163.695 58.3068Z" fill="#9E616A"/>
    <path d="M164.474 53.2132C163.771 50.2466 163.063 47.2639 161.877 44.455C160.692 41.646 158.994 38.9928 156.607 37.0951C155.844 36.4884 154.991 35.9529 154.034 35.7643C153.078 35.5756 151.999 35.7868 151.327 36.4931C150.252 37.6235 150.576 39.4378 150.97 40.9468C152.133 45.3962 153.296 49.8456 154.459 54.2951C157.816 53.9393 161.174 53.5835 164.532 53.2277L164.474 53.2132Z" fill="#3F3D56"/>
    <path d="M153.397 24.1017C153.101 22.1601 152.793 20.2023 152.098 18.3742C151.403 16.546 150.283 14.8336 148.677 13.798C146.134 12.1583 142.841 12.4746 139.989 13.4177C137.784 14.1472 135.632 15.2558 134.076 17.0381C132.521 18.8205 131.648 21.3637 132.226 23.6942C135.268 22.9759 138.31 22.2576 141.351 21.5392L141.018 21.7744C142.017 22.2722 142.889 22.9909 143.569 23.8758C144.248 24.7608 144.717 25.7889 144.939 26.882C145.157 27.9884 145.126 29.1293 144.848 30.2221C144.57 31.315 144.053 32.3324 143.333 33.2009C145.408 32.4654 147.482 31.7298 149.557 30.9943C150.837 30.5403 152.208 30.0172 152.967 28.8527C153.847 27.5025 153.643 25.713 153.397 24.1017Z" fill="#2F2E41"/>
  </g>
  <defs>
    <clipPath id="clip0_2923_25720">
      <rect width="211" height="157.629" fill="white" transform="translate(0.5)"/>
    </clipPath>
  </defs>
</svg>