<svg width="1440" height="300" viewBox="0 0 1440 300" fill="none" xmlns="http://www.w3.org/2000/svg">
<g clip-path="url(#clip0_1885_18023)">
<rect width="1440" height="300" fill="#FF983F"/>
<g clip-path="url(#clip1_1885_18023)">
<rect x="-105.189" y="-28" width="305.543" height="93.0285" rx="5" transform="rotate(8.53759 -105.189 -28)" fill="#FFEBEE"/>
<path d="M-1.46089 42.8673C-2.61595 42.6939 -3.63056 42.3394 -4.50471 41.8037C-5.36305 41.2703 -6.00538 40.5914 -6.43171 39.767C-6.85804 38.9426 -7.00311 38.0228 -6.86691 37.0078L-3.3068 37.5423C-3.36147 38.2298 -3.20489 38.8034 -2.83706 39.2631C-2.45341 39.7252 -1.88184 40.0132 -1.12235 40.1272C-0.34704 40.2436 0.289451 40.1531 0.787119 39.8557C1.28716 39.5424 1.58232 39.0852 1.67258 38.4839C1.74621 37.9934 1.65647 37.5674 1.40334 37.2058C1.15022 36.8442 0.807293 36.542 0.374563 36.299C-0.0399687 36.0426 -0.626175 35.7443 -1.38405 35.404C-2.41249 34.926 -3.24433 34.4857 -3.87958 34.0829C-4.49662 33.6667 -5.00408 33.1132 -5.40195 32.4225C-5.78161 31.7183 -5.89306 30.8441 -5.73629 29.7998C-5.58902 28.8188 -5.2155 28.0012 -4.61573 27.347C-4.01596 26.6928 -3.24454 26.2423 -2.30146 25.9956C-1.356 25.733 -0.313659 25.6873 0.825575 25.8583C2.53443 26.1148 3.85597 26.742 4.7902 27.7397C5.74262 28.724 6.16257 29.9681 6.05005 31.4721L2.39501 30.9234C2.44887 30.349 2.27369 29.8454 1.86947 29.4126C1.48344 28.9664 0.918594 28.6874 0.174926 28.5758C-0.473804 28.4784 -1.02089 28.5662 -1.46634 28.8391C-1.89597 29.1143 -2.15829 29.5684 -2.2533 30.2013C-2.31981 30.6444 -2.23323 31.0376 -1.99355 31.381C-1.73568 31.7109 -1.40738 32.0029 -1.00868 32.2569C-0.591768 32.4974 -0.00556245 32.7958 0.749943 33.1519C1.77838 33.6299 2.60903 34.0781 3.2419 34.4967C3.87477 34.9153 4.38895 35.4779 4.78444 36.1844C5.17993 36.891 5.30048 37.7585 5.14608 38.787C5.01306 39.673 4.66012 40.4614 4.08724 41.152C3.51437 41.8426 2.75045 42.3508 1.7955 42.6766C0.842918 42.9867 -0.242546 43.0502 -1.46089 42.8673ZM16.7145 31.7868C17.7113 31.9365 18.5642 32.291 19.273 32.8504C19.9841 33.394 20.4892 34.1251 20.7881 35.0437C21.1053 35.9488 21.1748 36.9947 20.9966 38.1814L19.8387 45.895L16.5159 45.3961L17.6062 38.1335C17.7629 37.0892 17.6218 36.251 17.1828 35.6188C16.7462 34.9708 16.0769 34.5791 15.175 34.4437C14.2573 34.3059 13.4867 34.4815 12.8632 34.9703C12.2579 35.4457 11.8769 36.2056 11.7201 37.2499L10.6298 44.5125L7.30708 44.0137L9.9437 26.4505L13.2665 26.9493L12.3579 33.0015C12.8706 32.496 13.5067 32.1385 14.2663 31.9289C15.0282 31.7035 15.8443 31.6562 16.7145 31.7868ZM28.8049 47.4594C27.5391 47.2694 26.4415 46.8215 25.5119 46.1157C24.5848 45.394 23.9057 44.475 23.4747 43.3587C23.0594 42.2447 22.9528 41.0152 23.1547 39.6703C23.3566 38.3253 23.8275 37.1826 24.5673 36.242C25.323 35.3038 26.2566 34.635 27.3682 34.2356C28.4822 33.8204 29.6721 33.7078 30.9379 33.8978C32.2037 34.0878 33.3081 34.5448 34.2511 35.2689C35.1964 35.977 35.8846 36.8893 36.3157 38.0057C36.7625 39.1244 36.885 40.3563 36.6831 41.7012C36.4812 43.0461 35.9945 44.1865 35.223 45.1223C34.4674 46.0606 33.5246 46.7361 32.3948 47.1489C31.2832 47.5483 30.0866 47.6518 28.8049 47.4594ZM29.2396 44.5639C29.8409 44.6541 30.424 44.596 30.9889 44.3896C31.572 44.1698 32.0657 43.7909 32.47 43.2529C32.8744 42.715 33.1395 42.0267 33.2654 41.1881C33.453 39.9381 33.2645 38.931 32.6997 38.1666C32.1531 37.3889 31.4051 36.9287 30.4558 36.7862C29.5064 36.6437 28.6563 36.8639 27.9054 37.4469C27.1727 38.0165 26.7126 38.9262 26.5249 40.1762C26.3373 41.4262 26.5009 42.4377 27.0159 43.2107C27.549 43.9703 28.2903 44.4213 29.2396 44.5639ZM43.1452 37.8903C43.6626 37.3532 44.3229 36.9426 45.1259 36.6587C45.9472 36.3613 46.8404 36.2851 47.8056 36.43C48.929 36.5986 49.9001 37.0276 50.7188 37.7168C51.5534 38.4083 52.1546 39.3075 52.5223 40.4144C52.9083 41.5078 53.0003 42.727 52.7984 44.0719C52.5965 45.4168 52.1482 46.5711 51.4534 47.5346C50.7769 48.4847 49.937 49.1757 48.9338 49.6075C47.9464 50.0417 46.891 50.1745 45.7676 50.0059C44.8024 49.861 43.9776 49.5349 43.2934 49.0277C42.6249 48.5229 42.1064 47.9354 41.7378 47.2653L40.5157 55.406L37.1929 54.9072L40.1074 35.4928L43.4302 35.9916L43.1452 37.8903ZM49.4044 43.5624C49.5232 42.7713 49.4592 42.0659 49.2124 41.4464C48.9839 40.8135 48.6232 40.3063 48.1303 39.9249C47.6533 39.5459 47.1063 39.3101 46.4892 39.2175C45.8879 39.1272 45.2945 39.1999 44.7091 39.4356C44.1418 39.6578 43.6481 40.0367 43.2279 40.5723C42.8236 41.1102 42.562 41.7748 42.4432 42.5659C42.3245 43.357 42.3794 44.0691 42.6079 44.702C42.8523 45.3374 43.2118 45.8524 43.6865 46.2473C44.1793 46.6287 44.7264 46.8645 45.3276 46.9548C45.9447 47.0474 46.5381 46.9747 47.1078 46.7366C47.6932 46.5009 48.1881 46.1141 48.5925 45.5762C49.0127 45.0406 49.2833 44.3694 49.4044 43.5624ZM77.2425 37.5728L68.6796 53.2271L64.6448 52.6213L61.0559 35.1429L64.616 35.6773L67.1955 49.5338L73.7061 37.0419L77.2425 37.5728ZM82.5542 55.5284C81.2884 55.3383 80.1907 54.8904 79.2612 54.1846C78.3341 53.463 77.655 52.544 77.2239 51.4276C76.8087 50.3136 76.7021 49.0841 76.904 47.7392C77.1059 46.3943 77.5767 45.2515 78.3166 44.3109C79.0722 43.3727 80.0059 42.7039 81.1175 42.3045C82.2315 41.8893 83.4214 41.7767 84.6872 41.9667C85.953 42.1568 87.0574 42.6138 88.0004 43.3378C88.9457 44.046 89.6339 44.9583 90.0649 46.0746C90.5118 47.1934 90.6343 48.4252 90.4324 49.7701C90.2305 51.1151 89.7438 52.2554 88.9723 53.1913C88.2166 54.1295 87.2739 54.805 86.1441 55.2179C85.0325 55.6173 83.8359 55.7208 82.5542 55.5284ZM82.9889 52.6328C83.5902 52.7231 84.1732 52.665 84.7382 52.4586C85.3213 52.2387 85.815 51.8598 86.2193 51.3219C86.6237 50.7839 86.8888 50.0957 87.0147 49.2571C87.2023 48.0071 87.0138 46.9999 86.449 46.2356C85.9024 45.4578 85.1544 44.9977 84.205 44.8552C83.2557 44.7126 82.4056 44.9329 81.6547 45.5159C80.922 46.0854 80.4619 46.9952 80.2742 48.2452C80.0866 49.4952 80.2502 50.5067 80.7651 51.2797C81.2983 52.0392 82.0395 52.4903 82.9889 52.6328ZM106.27 45.4251L104.296 58.5738L100.949 58.0714L101.199 56.41C100.686 56.9155 100.056 57.2821 99.3104 57.5099C98.5825 57.7242 97.8151 57.7708 97.0081 57.6497C95.9797 57.4953 95.1019 57.1451 94.3749 56.5991C93.6503 56.0373 93.1215 55.3027 92.7885 54.3952C92.4738 53.4742 92.4043 52.4283 92.5801 51.2574L93.738 43.5439L97.0608 44.0427L95.9741 51.2816C95.8173 52.3259 95.9572 53.172 96.3939 53.82C96.8329 54.4522 97.5033 54.836 98.4052 54.9714C99.323 55.1092 100.084 54.9404 100.69 54.4649C101.297 53.9737 101.68 53.2059 101.836 52.1616L102.923 44.9228L106.27 45.4251ZM107.707 52.3634C107.911 51.0026 108.366 49.8575 109.072 48.928C109.78 47.9826 110.666 47.3067 111.73 46.9002C112.797 46.4778 113.963 46.3617 115.229 46.5517C116.859 46.7964 118.142 47.4097 119.078 48.3916C120.033 49.3601 120.582 50.6074 120.725 52.1335L117.141 51.5955C117.037 50.9974 116.779 50.5057 116.368 50.1203C115.975 49.7215 115.446 49.4723 114.781 49.3725C113.832 49.23 113.028 49.4652 112.37 50.0783C111.714 50.6755 111.291 51.6071 111.101 52.8729C110.913 54.1229 111.044 55.1375 111.493 55.9169C111.945 56.6804 112.645 57.1334 113.595 57.2759C114.94 57.4778 115.908 57.0084 116.5 55.8676L120.084 56.4056C119.506 57.7751 118.616 58.7983 117.414 59.4754C116.213 60.1525 114.805 60.3699 113.191 60.1276C111.925 59.9375 110.843 59.492 109.945 58.7909C109.05 58.0741 108.401 57.1677 107.999 56.0719C107.6 54.9603 107.502 53.7241 107.707 52.3634ZM131.259 48.9825C132.256 49.1321 133.109 49.4866 133.818 50.0461C134.529 50.5897 135.034 51.3208 135.333 52.2393C135.65 53.1444 135.719 54.1903 135.541 55.377L134.383 63.0906L131.06 62.5918L132.151 55.3292C132.308 54.2849 132.166 53.4466 131.727 52.8144C131.291 52.1664 130.621 51.7747 129.72 51.6394C128.802 51.5016 128.031 51.6771 127.408 52.166C126.803 52.6414 126.421 53.4012 126.265 54.4455L125.174 61.7082L121.852 61.2093L124.488 43.6461L127.811 44.145L126.902 50.1971C127.415 49.6917 128.051 49.3341 128.811 49.1246C129.573 48.8992 130.389 48.8518 131.259 48.9825ZM150.796 58.5408C150.725 59.0154 150.629 59.4379 150.508 59.8081L140.896 58.3651C140.833 59.3264 141.053 60.1199 141.558 60.7458C142.063 61.3716 142.742 61.7487 143.597 61.877C144.831 62.0622 145.789 61.664 146.47 60.6823L150.054 61.2203C149.484 62.4291 148.599 63.3641 147.4 64.0254C146.203 64.6708 144.821 64.876 143.255 64.6408C141.989 64.4508 140.891 64.0029 139.962 63.297C139.05 62.5778 138.387 61.6612 137.972 60.5472C137.572 59.4356 137.474 58.2073 137.676 56.8624C137.88 55.5016 138.336 54.3486 139.044 53.4032C139.752 52.4579 140.647 51.7831 141.726 51.379C142.806 50.9748 143.995 50.8702 145.293 51.0649C146.543 51.2526 147.618 51.689 148.518 52.3743C149.434 53.0619 150.086 53.9445 150.475 55.0221C150.881 56.0862 150.988 57.2591 150.796 58.5408ZM147.497 57.0748C147.609 56.218 147.403 55.4913 146.878 54.8947C146.355 54.2823 145.658 53.9107 144.788 53.7801C143.965 53.6566 143.231 53.8052 142.585 54.226C141.958 54.6334 141.514 55.2706 141.255 56.1377L147.497 57.0748ZM157.182 55.1553C157.713 54.5232 158.349 54.0605 159.089 53.767C159.844 53.476 160.665 53.397 161.551 53.53L161.028 57.0189L160.149 56.8871C159.105 56.7303 158.277 56.8568 157.666 57.2665C157.07 57.6786 156.68 58.4939 156.498 59.7122L155.514 66.2628L152.191 65.764L154.165 52.6153L157.488 53.1142L157.182 55.1553ZM166.787 68.1735C165.711 68.0119 164.774 67.6772 163.976 67.1692C163.181 66.6453 162.581 66.0131 162.174 65.2726C161.783 64.5344 161.625 63.7582 161.698 62.9442L165.045 63.4465C165.032 63.9624 165.215 64.4185 165.592 64.8149C165.985 65.2137 166.506 65.4618 167.155 65.5592C167.788 65.6542 168.297 65.6012 168.683 65.4003C169.085 65.2018 169.316 64.9047 169.375 64.5092C169.439 64.082 169.265 63.7322 168.853 63.46C168.459 63.1744 167.807 62.8337 166.895 62.438C165.95 62.0534 165.18 61.687 164.585 61.3389C164.006 60.9931 163.526 60.5246 163.145 59.9336C162.781 59.345 162.665 58.6076 162.798 57.7215C162.907 56.9937 163.213 56.36 163.714 55.8205C164.232 55.2834 164.904 54.8989 165.732 54.6672C166.575 54.4379 167.527 54.4028 168.587 54.562C170.154 54.7971 171.344 55.3803 172.159 56.3116C172.976 57.2271 173.332 58.3565 173.228 59.6998L170.048 59.2224C170.078 58.6931 169.919 58.2485 169.568 57.8885C169.236 57.515 168.746 57.2796 168.097 57.1822C167.496 57.0919 167.012 57.1326 166.647 57.3042C166.297 57.4783 166.092 57.763 166.033 58.1586C165.966 58.6017 166.137 58.9751 166.544 59.2789C166.954 59.567 167.608 59.8997 168.506 60.2772C169.42 60.6571 170.166 61.0199 170.745 61.3657C171.324 61.7115 171.795 62.1866 172.157 62.7911C172.538 63.3822 172.67 64.114 172.556 64.9866C172.442 65.7461 172.126 66.3944 171.608 66.9315C171.107 67.471 170.434 67.8555 169.591 68.0848C168.766 68.3007 167.831 68.3302 166.787 68.1735Z" fill="#E60C2B"/>
</g>
<rect x="-104.769" y="-27.4313" width="304.543" height="92.0285" rx="4.5" transform="rotate(8.53759 -104.769 -27.4313)" stroke="#E60C2B"/>
<g filter="url(#filter0_f_1885_18023)">
<g clip-path="url(#clip2_1885_18023)">
<rect x="-250" y="398.564" width="358" height="109" rx="5" transform="rotate(-21.3895 -250 398.564)" fill="#FFEBEE"/>
</g>
<rect x="-249.352" y="398.848" width="357" height="108" rx="4.5" transform="rotate(-21.3895 -249.352 398.848)" stroke="#E60C2B"/>
</g>
<g filter="url(#filter1_f_1885_18023)">
<g clip-path="url(#clip3_1885_18023)">
<rect x="1270" y="27.5645" width="358" height="109" rx="5" transform="rotate(-21.3895 1270 27.5645)" fill="#FFEBEE"/>
<g clip-path="url(#clip4_1885_18023)">
<g clip-path="url(#clip5_1885_18023)">
<path d="M1306.39 54.6593C1305.4 55.0462 1304.61 55.8097 1304.18 56.7818C1303.76 57.7538 1303.74 58.8549 1304.12 59.8427L1307.04 67.2916C1309.11 66.482 1311.42 67.5088 1312.22 69.5573C1312.61 70.5451 1312.59 71.6461 1312.16 72.6182C1311.74 73.5902 1310.95 74.3537 1309.96 74.7406L1312.88 82.1896C1313.26 83.1774 1314.03 83.971 1315 84.396C1315.97 84.8208 1317.07 84.8421 1318.06 84.4552L1347.86 72.7846C1348.84 72.3977 1349.64 71.6343 1350.06 70.6623C1350.49 69.6902 1350.51 68.5892 1350.12 67.6014L1347.2 60.1523C1346.22 60.5392 1345.11 60.5179 1344.14 60.0931C1343.17 59.6682 1342.41 58.8745 1342.02 57.8867C1341.21 55.8196 1342.24 53.5057 1344.29 52.7034L1341.37 45.2544C1340.56 43.1873 1338.23 42.1864 1336.18 42.9887L1306.39 54.6593ZM1329.99 51.8578L1333.88 53.5571L1324.25 75.5861L1320.36 73.8869L1329.99 51.8578ZM1317.56 56.8121C1319.39 56.0972 1321.44 56.9922 1322.15 58.8172C1322.49 59.6914 1322.47 60.6658 1322.1 61.5261C1321.72 62.3864 1321.02 63.062 1320.15 63.4044C1318.32 64.1192 1316.27 63.2243 1315.56 61.3993C1315.22 60.5251 1315.23 59.5507 1315.61 58.6904C1315.99 57.8302 1316.69 57.1545 1317.56 56.8121ZM1334.1 64.0396C1335.92 63.3248 1337.97 64.2196 1338.69 66.0447C1339.03 66.9189 1339.01 67.8933 1338.63 68.7535C1338.26 69.6139 1337.55 70.2895 1336.68 70.6319C1334.86 71.3467 1332.81 70.4518 1332.09 68.6268C1331.75 67.7526 1331.77 66.7782 1332.15 65.918C1332.52 65.0576 1333.22 64.382 1334.1 64.0396Z" fill="#E60C2B"/>
</g>
</g>
<line x1="1345.42" y1="-1.9763" x2="1385.17" y2="99.5161" stroke="#E60C2B" stroke-dasharray="5 5"/>
<g clip-path="url(#clip6_1885_18023)">
<path d="M1418.97 36.5204C1417.88 36.9463 1416.82 37.1453 1415.8 37.1171C1414.79 37.0831 1413.89 36.8152 1413.11 36.3134C1412.33 35.8116 1411.75 35.0869 1411.36 34.1392L1414.71 32.8263C1415.01 33.4494 1415.43 33.8684 1415.98 34.0833C1416.54 34.2923 1417.18 34.2568 1417.89 33.9767C1418.62 33.6908 1419.13 33.2948 1419.41 32.7888C1419.69 32.2678 1419.72 31.7243 1419.5 31.1582C1419.31 30.6963 1419.02 30.3719 1418.62 30.1848C1418.22 29.9977 1417.78 29.9068 1417.28 29.9122C1416.79 29.8968 1416.14 29.9307 1415.31 30.0139C1414.18 30.1127 1413.24 30.1461 1412.49 30.1139C1411.75 30.0611 1411.03 29.8346 1410.34 29.4344C1409.66 29.0136 1409.13 28.3115 1408.74 27.3282C1408.38 26.4046 1408.3 25.5096 1408.49 24.6434C1408.68 23.7772 1409.13 23.002 1409.82 22.3176C1410.51 21.6184 1411.39 21.0587 1412.46 20.6386C1414.07 20.0084 1415.53 19.8926 1416.84 20.2912C1418.15 20.6691 1419.14 21.5378 1419.79 22.8974L1416.35 24.2453C1416.11 23.7207 1415.71 23.3716 1415.14 23.1982C1414.58 23.0041 1413.95 23.0441 1413.25 23.3184C1412.64 23.5576 1412.21 23.9066 1411.96 24.3653C1411.73 24.8182 1411.73 25.3427 1411.96 25.9386C1412.12 26.3557 1412.4 26.6533 1412.77 26.8313C1413.16 26.9886 1413.59 27.0779 1414.06 27.0991C1414.55 27.0996 1415.2 27.0657 1416.04 26.9974C1417.17 26.8986 1418.11 26.8727 1418.87 26.9197C1419.62 26.9667 1420.35 27.1978 1421.04 27.6128C1421.74 28.0278 1422.28 28.7195 1422.66 29.6879C1422.98 30.5222 1423.07 31.3815 1422.92 32.2658C1422.77 33.1501 1422.36 33.9717 1421.69 34.7305C1421.02 35.4744 1420.11 36.0711 1418.97 36.5204ZM1429.19 17.8497C1430.13 17.482 1431.04 17.3638 1431.94 17.4951C1432.83 17.6114 1433.63 17.993 1434.35 18.6399C1435.07 19.2661 1435.65 20.1379 1436.09 21.2553L1438.94 28.518L1435.81 29.7434L1433.13 22.9053C1432.74 21.922 1432.2 21.2659 1431.51 20.9371C1430.81 20.5933 1430.03 20.5877 1429.18 20.9203C1428.32 21.2588 1427.74 21.7954 1427.44 22.5301C1427.15 23.2441 1427.2 24.0927 1427.59 25.076L1430.27 31.9142L1427.14 33.1396L1420.66 16.6028L1423.79 15.3774L1426.02 21.0759C1426.21 20.382 1426.59 19.7548 1427.14 19.1943C1427.69 18.6188 1428.37 18.1706 1429.19 17.8497ZM1447.49 25.4006C1446.3 25.8674 1445.12 26.0269 1443.96 25.8789C1442.8 25.716 1441.75 25.2584 1440.82 24.5059C1439.91 23.7476 1439.2 22.7353 1438.7 21.469C1438.21 20.2026 1438.05 18.9773 1438.22 17.7931C1438.41 16.603 1438.88 15.5575 1439.65 14.6568C1440.4 13.7412 1441.38 13.05 1442.57 12.5831C1443.76 12.1163 1444.95 11.9614 1446.13 12.1185C1447.3 12.2606 1448.35 12.7079 1449.28 13.4604C1450.23 14.207 1450.95 15.2135 1451.44 16.4798C1451.94 17.7461 1452.09 18.9772 1451.88 20.1732C1451.7 21.3633 1451.22 22.4191 1450.44 23.3405C1449.68 24.2413 1448.69 24.928 1447.49 25.4006ZM1446.42 22.6743C1446.99 22.4525 1447.46 22.1113 1447.85 21.6506C1448.24 21.1691 1448.48 20.5944 1448.57 19.9265C1448.65 19.2586 1448.53 18.5298 1448.22 17.7402C1447.76 16.5633 1447.1 15.7845 1446.23 15.4038C1445.37 15.0025 1444.49 14.9769 1443.59 15.327C1442.7 15.6771 1442.07 16.2921 1441.71 17.1719C1441.36 18.0311 1441.42 19.0491 1441.88 20.226C1442.34 21.403 1442.99 22.198 1443.82 22.611C1444.66 23.0033 1445.53 23.0244 1446.42 22.6743ZM1455.14 9.95313C1455.32 9.22946 1455.69 8.54427 1456.24 7.89756C1456.81 7.23012 1457.54 6.71842 1458.45 6.36247C1459.51 5.94816 1460.57 5.83542 1461.62 6.02423C1462.69 6.20721 1463.66 6.68661 1464.53 7.46241C1465.41 8.21748 1466.1 9.22818 1466.59 10.4945C1467.09 11.7608 1467.27 12.9848 1467.15 14.1665C1467.04 15.3274 1466.66 16.3453 1466 17.2201C1465.36 18.089 1464.52 18.7306 1463.46 19.1449C1462.55 19.5009 1461.67 19.6298 1460.83 19.5316C1460 19.4275 1459.25 19.1771 1458.6 18.7802L1461.6 26.4452L1458.47 27.6706L1451.31 9.39079L1454.44 8.16538L1455.14 9.95313ZM1463.4 11.7462C1463.1 11.0013 1462.7 10.4219 1462.17 10.0081C1461.66 9.57363 1461.09 9.31404 1460.48 9.22938C1459.87 9.13888 1459.28 9.20742 1458.7 9.435C1458.14 9.65674 1457.66 10.0158 1457.27 10.5122C1456.89 10.9878 1456.65 11.5625 1456.55 12.2362C1456.47 12.9042 1456.57 13.6106 1456.87 14.3555C1457.16 15.1004 1457.56 15.6901 1458.07 16.1246C1458.6 16.5533 1459.17 16.8203 1459.78 16.9257C1460.4 17.0104 1460.99 16.9418 1461.56 16.7201C1462.14 16.4925 1462.61 16.1335 1462.99 15.643C1463.38 15.1466 1463.61 14.5644 1463.7 13.8965C1463.79 13.2228 1463.69 12.506 1463.4 11.7462ZM1484.53 -7.3331L1484.92 10.5058L1481.12 11.9938L1469.29 -1.36359L1472.65 -2.67653L1481.79 8.04545L1481.2 -6.02891L1484.53 -7.3331ZM1498.1 5.57826C1496.9 6.04509 1495.73 6.20451 1494.57 6.05654C1493.41 5.89368 1492.36 5.43601 1491.43 4.68355C1490.51 3.92525 1489.81 2.91294 1489.31 1.64661C1488.82 0.380287 1488.65 -0.845013 1488.83 -2.02929C1489.01 -3.2194 1489.49 -4.26481 1490.25 -5.16553C1491.01 -6.08116 1491.99 -6.77238 1493.18 -7.2392C1494.37 -7.70603 1495.56 -7.86092 1496.73 -7.70389C1497.91 -7.56176 1498.96 -7.11446 1499.89 -6.362C1500.83 -5.61537 1501.55 -4.60889 1502.05 -3.34257C1502.55 -2.07624 1502.69 -0.845104 1502.49 0.350841C1502.3 1.54095 1501.82 2.59673 1501.05 3.51819C1500.29 4.41891 1499.3 5.1056 1498.1 5.57826ZM1497.03 2.85193C1497.59 2.63019 1498.07 2.28896 1498.46 1.82823C1498.85 1.34677 1499.09 0.772073 1499.17 0.104142C1499.26 -0.563788 1499.14 -1.29255 1498.83 -2.08214C1498.37 -3.25908 1497.71 -4.03787 1496.83 -4.4185C1495.97 -4.81986 1495.1 -4.84549 1494.2 -4.49537C1493.31 -4.14525 1492.68 -3.53026 1492.32 -2.6504C1491.97 -1.79128 1492.02 -0.773244 1492.49 0.403695C1492.95 1.58063 1493.59 2.37562 1494.43 2.78866C1495.27 3.18096 1496.13 3.20205 1497.03 2.85193ZM1513.61 -15.0093L1518.46 -2.62914L1515.31 -1.39498L1514.69 -2.95926C1514.5 -2.26538 1514.14 -1.63364 1513.61 -1.06403C1513.08 -0.515149 1512.44 -0.0919103 1511.68 0.20569C1510.71 0.584984 1509.78 0.719391 1508.87 0.608911C1507.97 0.483533 1507.14 0.11066 1506.4 -0.509708C1505.67 -1.15081 1505.09 -2.02259 1504.65 -3.12503L1501.81 -10.3878L1504.94 -11.6132L1507.61 -4.79739C1507.99 -3.81412 1508.54 -3.15061 1509.24 -2.80685C1509.93 -2.47798 1510.71 -2.47986 1511.56 -2.81247C1512.42 -3.15091 1512.99 -3.67714 1513.28 -4.39113C1513.56 -5.12002 1513.51 -5.9761 1513.13 -6.95936L1510.46 -13.7752L1513.61 -15.0093ZM1518.32 -9.71321C1517.81 -10.9944 1517.64 -12.2139 1517.78 -13.3716C1517.93 -14.5442 1518.36 -15.5721 1519.08 -16.4553C1519.79 -17.3534 1520.74 -18.0359 1521.93 -18.5027C1523.47 -19.1038 1524.89 -19.2124 1526.19 -18.8287C1527.5 -18.4657 1528.6 -17.6586 1529.48 -16.4073L1526.11 -15.0856C1525.72 -15.5519 1525.25 -15.8494 1524.7 -15.9781C1524.16 -16.1276 1523.58 -16.0798 1522.95 -15.8347C1522.06 -15.4846 1521.48 -14.8797 1521.22 -14.0199C1520.95 -13.1751 1521.04 -12.1567 1521.51 -10.9649C1521.97 -9.78794 1522.59 -8.97383 1523.37 -8.52256C1524.14 -8.08618 1524.97 -8.04305 1525.87 -8.39317C1527.14 -8.88917 1527.74 -9.77915 1527.68 -11.0631L1531.06 -12.3848C1531.24 -10.9098 1530.98 -9.57907 1530.28 -8.39268C1529.57 -7.20629 1528.46 -6.31549 1526.94 -5.72029C1525.75 -5.25346 1524.59 -5.09987 1523.46 -5.25951C1522.33 -5.43405 1521.31 -5.89594 1520.42 -6.64517C1519.52 -7.4093 1518.82 -8.43198 1518.32 -9.71321ZM1537.04 -24.3936C1537.98 -24.7612 1538.89 -24.8794 1539.79 -24.7482C1540.68 -24.6319 1541.48 -24.2502 1542.2 -23.6033C1542.92 -22.9771 1543.5 -22.1053 1543.94 -20.988L1546.79 -13.7252L1543.66 -12.4998L1540.98 -19.338C1540.59 -20.3212 1540.05 -20.9773 1539.36 -21.3062C1538.66 -21.6499 1537.88 -21.6555 1537.03 -21.3229C1536.17 -20.9844 1535.59 -20.4478 1535.29 -19.7131C1535 -18.9991 1535.05 -18.1505 1535.44 -17.1672L1538.12 -10.3291L1534.99 -9.10365L1528.51 -25.6404L1531.64 -26.8658L1533.87 -21.1673C1534.06 -21.8612 1534.44 -22.4884 1534.99 -23.049C1535.54 -23.6244 1536.22 -24.0726 1537.04 -24.3936ZM1558.74 -25.8565C1558.92 -25.4096 1559.04 -24.9957 1559.12 -24.6148L1550.07 -21.0699C1550.5 -20.2052 1551.09 -19.6275 1551.83 -19.3369C1552.58 -19.0462 1553.36 -19.0585 1554.17 -19.3736C1555.33 -19.8287 1555.96 -20.6517 1556.06 -21.8424L1559.43 -23.1641C1559.54 -21.8322 1559.24 -20.5805 1558.53 -19.409C1557.82 -18.2524 1556.72 -17.3853 1555.25 -16.8076C1554.06 -16.3408 1552.88 -16.1814 1551.72 -16.3293C1550.58 -16.498 1549.54 -16.9615 1548.63 -17.7198C1547.73 -18.484 1547.03 -19.4992 1546.53 -20.7655C1546.03 -22.0467 1545.85 -23.2737 1545.99 -24.4463C1546.14 -25.6189 1546.57 -26.6497 1547.31 -27.5387C1548.04 -28.4278 1549.02 -29.1116 1550.24 -29.5901C1551.42 -30.051 1552.57 -30.2092 1553.69 -30.0644C1554.83 -29.9255 1555.83 -29.486 1556.71 -28.7458C1557.59 -28.0264 1558.27 -27.0633 1558.74 -25.8565ZM1555.15 -25.4813C1554.82 -26.2799 1554.28 -26.8067 1553.53 -27.0617C1552.77 -27.3316 1551.98 -27.3061 1551.16 -26.9851C1550.38 -26.6817 1549.82 -26.1866 1549.47 -25.4998C1549.13 -24.8337 1549.07 -24.0602 1549.27 -23.1792L1555.15 -25.4813ZM1562.59 -31.9765C1562.73 -32.7896 1563.05 -33.5078 1563.55 -34.1312C1564.06 -34.7604 1564.73 -35.2383 1565.56 -35.5651L1566.85 -32.2801L1566.02 -31.9563C1565.04 -31.5711 1564.38 -31.0484 1564.06 -30.3882C1563.75 -29.7338 1563.82 -28.833 1564.27 -27.6859L1566.68 -21.5181L1563.55 -20.2927L1558.7 -32.6729L1561.83 -33.8983L1562.59 -31.9765ZM1577.4 -25.486C1576.39 -25.0892 1575.41 -24.912 1574.47 -24.9545C1573.52 -25.0118 1572.68 -25.26 1571.96 -25.699C1571.25 -26.1438 1570.73 -26.7374 1570.39 -27.4796L1573.54 -28.7138C1573.78 -28.2604 1574.17 -27.9561 1574.69 -27.8008C1575.23 -27.6513 1575.81 -27.6962 1576.42 -27.9354C1577.02 -28.1688 1577.43 -28.4689 1577.67 -28.8357C1577.91 -29.2082 1577.97 -29.5808 1577.82 -29.9532C1577.66 -30.3554 1577.34 -30.5717 1576.84 -30.602C1576.36 -30.653 1575.62 -30.6227 1574.64 -30.5109C1573.63 -30.3726 1572.78 -30.3059 1572.09 -30.3109C1571.41 -30.3216 1570.76 -30.4882 1570.14 -30.8107C1569.53 -31.1389 1569.06 -31.7202 1568.73 -32.5545C1568.47 -33.2398 1568.41 -33.9413 1568.58 -34.6592C1568.76 -35.3828 1569.15 -36.0515 1569.75 -36.6652C1570.37 -37.2847 1571.18 -37.79 1572.17 -38.1809C1573.65 -38.7586 1574.97 -38.8472 1576.14 -38.4466C1577.31 -38.0608 1578.18 -37.2598 1578.76 -36.0434L1575.77 -34.8705C1575.53 -35.3446 1575.17 -35.6502 1574.68 -35.7874C1574.21 -35.9453 1573.67 -35.9047 1573.06 -35.6654C1572.49 -35.4437 1572.09 -35.1672 1571.86 -34.8361C1571.64 -34.5109 1571.61 -34.162 1571.76 -33.7895C1571.92 -33.3724 1572.25 -33.1338 1572.76 -33.0737C1573.26 -33.0285 1573.99 -33.0663 1574.96 -33.1872C1575.94 -33.3138 1576.76 -33.3717 1577.44 -33.3609C1578.11 -33.3501 1578.76 -33.1732 1579.37 -32.83C1580 -32.5076 1580.48 -31.9397 1580.81 -31.1261C1581.09 -30.411 1581.14 -29.6916 1580.96 -28.9679C1580.8 -28.2501 1580.41 -27.5814 1579.79 -26.9619C1579.18 -26.3631 1578.39 -25.8711 1577.4 -25.486Z" fill="#E60C2B"/>
</g>
</g>
<rect x="1270.65" y="27.8477" width="357" height="108" rx="4.5" transform="rotate(-21.3895 1270.65 27.8477)" stroke="#E60C2B"/>
</g>
</g>
<defs>
<filter id="filter0_f_1885_18023" x="-253" y="265" width="379.095" height="238.057" filterUnits="userSpaceOnUse" color-interpolation-filters="sRGB">
<feFlood flood-opacity="0" result="BackgroundImageFix"/>
<feBlend mode="normal" in="SourceGraphic" in2="BackgroundImageFix" result="shape"/>
<feGaussianBlur stdDeviation="1.5" result="effect1_foregroundBlur_1885_18023"/>
</filter>
<filter id="filter1_f_1885_18023" x="1267" y="-106" width="379.095" height="238.057" filterUnits="userSpaceOnUse" color-interpolation-filters="sRGB">
<feFlood flood-opacity="0" result="BackgroundImageFix"/>
<feBlend mode="normal" in="SourceGraphic" in2="BackgroundImageFix" result="shape"/>
<feGaussianBlur stdDeviation="1.5" result="effect1_foregroundBlur_1885_18023"/>
</filter>
<clipPath id="clip0_1885_18023">
<rect width="1440" height="300" fill="white"/>
</clipPath>
<clipPath id="clip1_1885_18023">
<rect x="-105.189" y="-28" width="305.543" height="93.0285" rx="5" transform="rotate(8.53759 -105.189 -28)" fill="white"/>
</clipPath>
<clipPath id="clip2_1885_18023">
<rect x="-250" y="398.564" width="358" height="109" rx="5" transform="rotate(-21.3895 -250 398.564)" fill="white"/>
</clipPath>
<clipPath id="clip3_1885_18023">
<rect x="1270" y="27.5645" width="358" height="109" rx="5" transform="rotate(-21.3895 1270 27.5645)" fill="white"/>
</clipPath>
<clipPath id="clip4_1885_18023">
<rect width="80" height="109" fill="white" transform="translate(1270 27.5645) rotate(-21.3895)"/>
</clipPath>
<clipPath id="clip5_1885_18023">
<rect width="48" height="48" fill="white" transform="translate(1296.02 50.1279) rotate(-21.3895)"/>
</clipPath>
<clipPath id="clip6_1885_18023">
<rect width="278" height="109" fill="white" transform="translate(1345.42 -1.97656) rotate(-21.3895)"/>
</clipPath>
</defs>
</svg>
