<svg width="212" height="173" viewBox="0 0 212 173" fill="none" xmlns="http://www.w3.org/2000/svg">
<g clip-path="url(#clip0_2457_26515)">
<path d="M168.946 32.1057C167.85 44.1825 164.727 56.9168 159.83 69.2038C153.774 84.3982 145.5 97.7814 135.902 107.906L135.369 107.442C144.921 97.3657 153.157 84.0416 159.188 68.91C164.639 55.2358 167.88 41.0058 168.567 27.7646L169.248 27.8786C169.176 29.277 169.075 30.6861 168.946 32.1057Z" fill="#F2F2F2"/>
<path d="M173.312 102.245C159.831 123.693 143.476 139.017 127.259 145.395L126.931 144.793C143.036 138.459 159.295 123.214 172.715 101.864L173.312 102.245Z" fill="#F2F2F2"/>
<path d="M168.619 47.1418C167.523 59.2186 164.4 71.953 159.503 84.2399C153.447 99.4343 145.173 112.818 135.575 122.943L135.042 122.478C144.594 112.402 152.83 99.0777 158.861 83.9461C164.311 70.272 167.553 56.042 168.24 42.8008L168.921 42.9147C168.849 44.3132 168.748 45.7222 168.619 47.1418Z" fill="#F2F2F2"/>
<path d="M17.2773 78.1466H8.43216C8.24318 78.147 8.05657 78.1046 7.88631 78.0226C7.71606 77.9406 7.56658 77.8211 7.4491 77.6731C7.33304 77.5288 7.25116 77.3602 7.2096 77.1797C7.16804 76.9993 7.16788 76.8118 7.20914 76.6313C8.05156 72.9142 7.99863 69.0501 7.05474 65.3575C6.99503 65.1144 7.00947 64.8589 7.09618 64.6241C7.1829 64.3892 7.33793 64.1857 7.54131 64.0397C12.0895 60.7685 15.6714 60.8635 18.1875 64.3223C18.3009 64.48 18.3763 64.6617 18.4076 64.8534C19.0799 68.895 19.1171 73.0168 18.5179 77.0698C18.4762 77.369 18.3276 77.6429 18.0995 77.8408C17.8715 78.0388 17.5794 78.1474 17.2773 78.1466Z" fill="#E6E6E6"/>
<path d="M14.5356 69.2888H11.4928C11.3246 69.2888 11.1632 69.222 11.0442 69.103C10.9252 68.9841 10.8584 68.8227 10.8584 68.6544C10.8584 68.4862 10.9252 68.3248 11.0442 68.2058C11.1632 68.0869 11.3246 68.02 11.4928 68.02H14.5356C14.7036 68.0204 14.8646 68.0874 14.9833 68.2063C15.102 68.3252 15.1687 68.4864 15.1687 68.6544C15.1687 68.8225 15.102 68.9836 14.9833 69.1026C14.8646 69.2215 14.7036 69.2885 14.5356 69.2888Z" fill="white"/>
<path d="M14.5356 71.5135H11.4928C11.3246 71.5135 11.1632 71.4466 11.0442 71.3276C10.9252 71.2087 10.8584 71.0473 10.8584 70.879C10.8584 70.7108 10.9252 70.5494 11.0442 70.4304C11.1632 70.3115 11.3246 70.2446 11.4928 70.2446H14.5356C14.7036 70.245 14.8646 70.312 14.9833 70.4309C15.102 70.5499 15.1687 70.711 15.1687 70.879C15.1687 71.0471 15.102 71.2082 14.9833 71.3272C14.8646 71.4461 14.7036 71.5131 14.5356 71.5135Z" fill="white"/>
<path d="M14.5356 73.7386H11.4928C11.3246 73.7386 11.1632 73.6717 11.0442 73.5527C10.9252 73.4338 10.8584 73.2724 10.8584 73.1041C10.8584 72.9359 10.9252 72.7745 11.0442 72.6555C11.1632 72.5366 11.3246 72.4697 11.4928 72.4697H14.5356C14.7036 72.4701 14.8646 72.5371 14.9833 72.656C15.102 72.7749 15.1687 72.9361 15.1687 73.1041C15.1687 73.2722 15.102 73.4333 14.9833 73.5523C14.8646 73.6712 14.7036 73.7382 14.5356 73.7386Z" fill="white"/>
<path d="M178.03 117.639H169.185C168.996 117.64 168.809 117.597 168.639 117.515C168.469 117.433 168.32 117.314 168.202 117.166C168.086 117.021 168.004 116.853 167.963 116.672C167.921 116.492 167.921 116.305 167.962 116.124C168.804 112.407 168.752 108.543 167.808 104.85C167.748 104.607 167.762 104.352 167.849 104.117C167.936 103.882 168.091 103.678 168.294 103.532C172.842 100.261 176.424 100.356 178.94 103.815C179.054 103.973 179.129 104.154 179.161 104.346C179.833 108.388 179.87 112.509 179.271 116.563C179.229 116.862 179.081 117.136 178.852 117.334C178.624 117.531 178.332 117.64 178.03 117.639Z" fill="#E6E6E6"/>
<path d="M175.288 108.782H172.245C172.077 108.781 171.916 108.714 171.798 108.595C171.679 108.476 171.612 108.315 171.612 108.147C171.612 107.979 171.679 107.818 171.798 107.699C171.916 107.58 172.077 107.513 172.245 107.513H175.288C175.456 107.513 175.618 107.58 175.737 107.699C175.856 107.817 175.923 107.979 175.923 108.147C175.923 108.315 175.856 108.477 175.737 108.596C175.618 108.715 175.456 108.782 175.288 108.782Z" fill="white"/>
<path d="M175.288 111.007H172.245C172.077 111.006 171.916 110.939 171.798 110.82C171.679 110.701 171.612 110.54 171.612 110.372C171.612 110.204 171.679 110.043 171.798 109.924C171.916 109.805 172.077 109.738 172.245 109.738H175.288C175.456 109.738 175.618 109.805 175.737 109.924C175.856 110.043 175.923 110.204 175.923 110.372C175.923 110.54 175.856 110.702 175.737 110.821C175.618 110.94 175.456 111.007 175.288 111.007Z" fill="white"/>
<path d="M175.288 113.231H172.245C172.077 113.231 171.916 113.164 171.798 113.045C171.679 112.926 171.612 112.765 171.612 112.597C171.612 112.429 171.679 112.268 171.798 112.149C171.916 112.03 172.077 111.963 172.245 111.962H175.288C175.456 111.962 175.618 112.029 175.737 112.148C175.856 112.267 175.923 112.429 175.923 112.597C175.923 112.765 175.856 112.926 175.737 113.045C175.618 113.164 175.456 113.231 175.288 113.231Z" fill="white"/>
<path d="M211.5 171.736C211.5 171.779 211.492 171.822 211.475 171.863C211.458 171.903 211.434 171.939 211.403 171.97C211.373 172.001 211.336 172.025 211.296 172.042C211.256 172.058 211.213 172.067 211.169 172.067H0.830961C0.743185 172.067 0.659007 172.032 0.59694 171.97C0.534873 171.908 0.5 171.824 0.5 171.736C0.5 171.648 0.534873 171.564 0.59694 171.502C0.659007 171.44 0.743185 171.405 0.830961 171.405H211.169C211.213 171.405 211.256 171.413 211.296 171.43C211.336 171.446 211.373 171.471 211.403 171.501C211.434 171.532 211.458 171.569 211.475 171.609C211.492 171.649 211.5 171.692 211.5 171.736Z" fill="#CCCCCC"/>
<path d="M55.9857 151.472L55.4341 143.799C51.8204 141.993 47.8203 141.096 43.7812 141.186C49.4637 145.578 49.0085 154.357 52.9439 160.365C54.1857 162.229 55.8311 163.79 57.7582 164.932C59.6853 166.074 61.8447 166.768 64.0763 166.962L68.8055 169.683C69.3464 166.107 69.1058 162.457 68.1002 158.984C67.0946 155.51 65.3479 152.296 62.9805 149.562C61.6372 148.042 60.1077 146.697 58.4283 145.559C57.3946 148.526 55.9857 151.472 55.9857 151.472Z" fill="#F2F2F2"/>
<path d="M156.014 152.584L156.566 144.911C160.18 143.105 164.18 142.208 168.219 142.298C162.536 146.69 162.992 155.469 159.056 161.477C157.814 163.342 156.169 164.903 154.242 166.045C152.315 167.187 150.155 167.88 147.924 168.075L143.195 170.795C142.654 167.22 142.894 163.569 143.9 160.096C144.905 156.622 146.652 153.408 149.02 150.674C150.363 149.154 151.892 147.809 153.572 146.671C154.605 149.639 156.014 152.584 156.014 152.584Z" fill="#F2F2F2"/>
<path d="M103.497 65.9967C106.416 65.9967 108.781 63.6309 108.781 60.7125C108.781 57.7941 106.416 55.4282 103.497 55.4282C100.579 55.4282 98.2129 57.7941 98.2129 60.7125C98.2129 63.6309 100.579 65.9967 103.497 65.9967Z" fill="#E60C2B"/>
<path d="M106.21 58.5102C106.13 58.4344 106.024 58.3921 105.915 58.3921C105.805 58.3921 105.699 58.4344 105.62 58.5102C104.498 59.4045 103.491 60.4331 102.621 61.5731C102.407 61.1597 102.194 60.7463 101.98 60.3329C101.733 59.8557 101.013 60.2773 101.26 60.754C101.572 61.3587 101.885 61.9633 102.197 62.568C102.235 62.6297 102.288 62.6807 102.351 62.7161C102.414 62.7515 102.485 62.7701 102.557 62.7701C102.63 62.7701 102.701 62.7515 102.764 62.7161C102.827 62.6807 102.88 62.6297 102.918 62.568C103.845 61.2618 104.953 60.0942 106.21 59.1002C106.287 59.0217 106.331 58.9157 106.331 58.8052C106.331 58.6948 106.287 58.5888 106.21 58.5102Z" fill="white"/>
<path d="M79.8523 75.6965L71.8838 63.1824L81.1111 58.2407L83.533 67.7884L100.597 77.0094C101.271 76.7669 102 76.7257 102.697 76.8908C103.394 77.0559 104.027 77.4201 104.521 77.9391C105.014 78.4581 105.346 79.1094 105.475 79.8135C105.605 80.5177 105.527 81.2444 105.25 81.9049C104.974 82.5654 104.511 83.1313 103.919 83.5335C103.327 83.9357 102.63 84.1568 101.914 84.17C101.198 84.1831 100.494 83.9877 99.8874 83.6075C99.2806 83.2274 98.7976 82.6789 98.4972 82.029L79.8523 75.6965Z" fill="#A0616A"/>
<path d="M66.0623 48.1731C63.5586 51.8492 72.4563 65.2114 72.4563 65.2114C72.8897 64.2771 77.0332 74.7692 77.7273 74.1495C79.6997 72.3879 82.7874 67.4812 84.5036 67.2625C85.4852 67.1374 82.2273 60.1764 82.2273 60.1764C82.2273 60.1764 80.7383 56.066 78.7179 50.8153C78.1743 49.3203 77.2612 47.9871 76.0637 46.9399C74.8662 45.8927 73.4232 45.1655 71.869 44.8259C71.869 44.8259 68.5661 44.4971 66.0623 48.1731Z" fill="#3F3D56"/>
<path d="M66.1844 167.941L69.9688 167.94L71.769 153.343L66.1836 153.344L66.1844 167.941Z" fill="#A0616A"/>
<path d="M65.2188 166.705L66.2839 166.705L70.4427 165.014L72.6716 166.705H72.6719C73.9316 166.705 75.1396 167.205 76.0303 168.096C76.921 168.987 77.4214 170.195 77.4215 171.454V171.609L65.219 171.609L65.2188 166.705Z" fill="#2F2E41"/>
<path d="M83.7662 167.941L87.5505 167.94L89.3511 153.343L83.7656 153.344L83.7662 167.941Z" fill="#A0616A"/>
<path d="M82.8008 166.705L83.866 166.705L88.0247 165.014L90.2537 166.705H90.254C91.5136 166.705 92.7216 167.205 93.6123 168.096C94.503 168.987 95.0034 170.195 95.0035 171.454V171.609L82.801 171.609L82.8008 166.705Z" fill="#2F2E41"/>
<path d="M85.4045 88.1377L60.789 88.7531C56.114 91.2923 56.043 96.7881 57.5748 103.313C57.5748 103.313 57.0577 107.192 58.0919 108.226C59.1261 109.26 59.6432 109.26 59.1261 111.07C58.609 112.88 61.3411 115.836 61.0093 116.168C60.6774 116.499 59.9018 118.309 59.9018 118.309L62.4873 133.047C62.4873 133.047 64.2972 158.644 64.8143 159.161C65.3314 159.678 65.8485 159.161 65.3314 160.454C64.8143 161.746 64.2972 161.229 64.8143 161.746C65.2724 162.24 65.7039 162.758 66.1071 163.298H72.3582C72.3582 163.298 72.8295 160.712 72.8295 160.454C72.8295 160.195 73.3466 158.644 73.3466 158.385C73.3466 158.127 72.8895 157.67 72.8895 157.67C72.7316 157.144 72.6249 156.604 72.5709 156.058C72.5709 155.541 71.0196 135.633 71.0196 135.633L74.1222 109.777L81.6203 135.115C81.6203 135.115 81.6203 157.351 82.1374 157.868C82.6545 158.385 82.6545 158.127 82.396 159.161C82.1374 160.195 81.1032 159.937 81.8789 160.712C82.6545 161.488 82.9131 160.195 82.6545 161.488L82.396 162.781L90.1526 162.892C90.1526 162.892 91.1868 160.712 90.6697 159.937C90.1526 159.161 90.1836 159.373 90.8145 158.103C91.4454 156.834 91.7039 156.575 91.4454 156.317C91.1868 156.058 91.1868 154.683 91.1868 154.683L89.8941 129.944C89.8941 129.944 89.6355 103.83 89.6355 103.055C89.616 102.656 89.6895 102.257 89.8503 101.892V100.839L88.8598 97.1079L85.4045 88.1377Z" fill="#2F2E41"/>
<path d="M70.6169 36.9536C74.8409 36.9536 78.2651 33.5294 78.2651 29.3054C78.2651 25.0814 74.8409 21.6572 70.6169 21.6572C66.393 21.6572 62.9688 25.0814 62.9688 29.3054C62.9688 33.5294 66.393 36.9536 70.6169 36.9536Z" fill="#A0616A"/>
<path d="M74.4416 42.0083C76.0893 42.9878 77.075 44.7876 77.6408 46.6191C78.6883 50.0098 79.3189 53.5156 79.5185 57.0588L80.1161 67.6666L87.5176 90.2537C81.103 95.6814 56.9915 91.4872 56.9915 91.4872C56.9915 91.4872 56.2513 91.2406 56.9915 90.5004C57.7316 89.7602 58.4521 90.416 57.712 89.6758C56.9719 88.9357 57.4821 89.7602 57.7288 89.0201C57.9755 88.2799 57.7288 88.7734 57.4821 88.5267C57.2354 88.2799 59.392 86.0595 59.392 86.0595L57.4183 73.0943L54.9512 46.9425C57.9118 43.2418 63.8659 41.0603 63.8659 41.0603L65.4043 38.291L73.0967 38.9064L74.4416 42.0083Z" fill="#3F3D56"/>
<path d="M76.9222 25.2421C77.5166 25.6854 77.957 26.3041 78.1813 27.0109C78.2675 25.8558 78.273 24.6961 78.1977 23.5403C78.1076 22.7281 77.5358 22.5454 76.8737 22.3337C76.2757 22.1425 75.5995 21.9264 75.4175 21.138C73.0134 18.7992 68.8283 18.9171 65.9641 19.7329C64.388 20.1818 63.4812 20.7586 63.4 21.0965L63.3832 21.1661L63.3192 21.1981C62.1044 21.8055 61.8679 23.7236 61.8835 25.2257C61.9131 28.0558 62.8903 31.2701 63.4408 31.5312C63.4699 31.545 63.4773 31.5396 63.4899 31.5291C64.3188 30.8667 65.33 31.5794 65.7745 31.9669C66.0366 30.2079 66.8806 28.5876 68.1716 27.3645C69.4627 26.1415 71.1264 25.3864 72.8969 25.2199C73.4751 25.164 74.0488 25.0678 74.6136 24.932C74.9001 24.8579 75.1946 24.8192 75.4905 24.8169C76 24.8092 76.4995 24.9576 76.9222 25.2421Z" fill="#2F2E41"/>
<path d="M124.401 94.2317L139.113 79.2917L142.989 67.3428L136.752 64.8198C133.662 67.9367 130.481 77.4784 130.481 77.4784L120.439 90.9555C120.359 90.9853 120.279 91.0168 120.2 91.0541C119.738 91.2724 119.34 91.6062 119.044 92.0234C118.749 92.4405 118.566 92.9268 118.513 93.4354C118.46 93.9439 118.54 94.4575 118.743 94.9263C118.947 95.3952 119.268 95.8036 119.676 96.1121C120.084 96.4205 120.564 96.6186 121.071 96.6871C121.578 96.7556 122.093 96.6923 122.568 96.5033C123.043 96.3142 123.462 96.0058 123.783 95.6079C124.104 95.21 124.317 94.736 124.401 94.2317Z" fill="#FFB8B8"/>
<path d="M135.05 66.187L142.938 68.4689L142.968 68.4632C145.867 67.9002 148.161 63.0816 149.574 59.1384C150.039 57.8377 149.993 56.4091 149.445 55.1412C148.897 53.8734 147.888 52.8609 146.622 52.3084C145.685 51.9072 144.655 51.776 143.648 51.9296C142.641 52.0832 141.696 52.5155 140.922 53.1776L136.989 56.5643L135.05 66.187Z" fill="#E60C2B"/>
<path d="M128.301 167.497L124.059 167.496L122.041 151.133L128.302 151.134L128.301 167.497Z" fill="#FFB8B8"/>
<path d="M129.383 166.112L128.189 166.112L123.527 164.216L121.029 166.111H121.028C119.616 166.111 118.262 166.672 117.264 167.671C116.265 168.669 115.704 170.024 115.704 171.436V171.609L129.383 171.609L129.383 166.112Z" fill="#2F2E41"/>
<path d="M147.125 167.497L142.882 167.496L140.864 151.133L147.126 151.134L147.125 167.497Z" fill="#FFB8B8"/>
<path d="M148.208 166.112L147.013 166.112L142.352 164.216L139.853 166.111H139.853C138.441 166.111 137.086 166.672 136.088 167.671C135.089 168.669 134.528 170.024 134.528 171.436V171.609L148.207 171.609L148.208 166.112Z" fill="#2F2E41"/>
<path d="M153.594 97.0145C153.594 97.0145 154.089 102.959 152.851 108.656C151.612 114.352 151.612 130.396 151.612 130.396L148.888 161.66L140.714 160.917L138.485 108.656L130.559 126.241L131.302 128.718L130.313 129.337C130.313 129.337 131.055 134.167 130.559 134.167C130.064 134.167 128.826 134.91 128.826 134.91L129.816 160.421L121.395 160.174L118.423 124.26L121.643 103.702L121.89 99.7391L123.005 99.7849L123.573 98.1291L124.615 95.2808L153.594 97.0145Z" fill="#2F2E41"/>
<path d="M154.022 98.2629L154.066 98.201C156.423 94.9003 152.878 86.9689 152.343 85.8191L154.595 85.0882L154.088 80.7766L153.848 78.8544L155.569 77.1328L155.574 77.0899L156.565 68.421L158.005 62.6632C158.548 60.4865 158.502 58.2046 157.871 56.0518C157.241 53.8989 156.049 51.9526 154.418 50.4127L151.088 47.2732L147.041 41.2856H140.516L138.278 45.512C136.109 46.0133 134.184 47.2598 132.839 49.0343C131.495 50.8088 130.815 52.9988 130.919 55.2229L131.426 66.3073L129.441 80.1084L129.44 82.606L127.206 85.0889L127.693 87.5281L125.993 88.2568L125.242 91.7602C124.932 92.1701 122.881 94.9046 122.881 95.6521C122.881 95.7643 122.964 95.8728 123.141 95.9932C124.539 96.9395 132.264 98.8689 135.682 97.5008C139.324 96.0447 153.801 98.2291 153.946 98.2513L154.022 98.2629Z" fill="#E60C2B"/>
<path d="M142.935 39.3531C147.708 39.3531 151.578 35.4838 151.578 30.7107C151.578 25.9377 147.708 22.0684 142.935 22.0684C138.162 22.0684 134.293 25.9377 134.293 30.7107C134.293 35.4838 138.162 39.3531 142.935 39.3531Z" fill="#FFB8B8"/>
<path d="M142.108 39.4929C143.447 39.4792 144.781 39.3512 146.098 39.1103C147.402 38.8101 150.277 36.5862 151.061 35.2725C151.644 34.2964 151.993 32.7866 152.184 31.6919C152.441 30.2433 152.392 28.7567 152.038 27.3285C151.685 25.9002 151.035 24.5621 150.132 23.4009C149.783 22.9144 149.31 22.5311 148.762 22.2915C148.713 22.2739 148.663 22.2586 148.613 22.2457C147.818 22.0583 147.098 21.6378 146.544 21.0379C146.436 20.9165 146.32 20.803 146.196 20.6982C145.575 20.2007 144.844 19.8572 144.065 19.696C142.805 19.3935 141.004 19.7726 138.71 20.8235C137.558 21.3515 136.279 21.2042 135.293 21.0169C135.238 21.0077 135.181 21.0131 135.129 21.0327C135.076 21.0522 135.03 21.0851 134.994 21.1282C134.587 21.5305 134.043 21.7638 133.471 21.7814C133.121 21.8058 132.766 22.3004 132.338 22.9445C132.24 23.0908 132.127 23.2614 132.045 23.3655L132.028 23.17L131.836 23.3936C131.533 23.745 131.324 24.1674 131.229 24.6212C131.133 25.0751 131.154 25.5458 131.29 25.9894C131.425 26.433 131.67 26.8352 132.003 27.1584C132.336 27.4817 132.745 27.7155 133.192 27.8381C133.547 27.9228 133.909 27.971 134.274 27.982C134.495 27.9962 134.724 28.0108 134.943 28.0431C135.649 28.1687 136.31 28.475 136.862 28.9323C137.413 29.3895 137.837 29.982 138.091 30.6519C138.151 30.8067 138.246 30.9456 138.368 31.058C138.491 31.1703 138.637 31.253 138.797 31.2998C138.956 31.3465 139.124 31.356 139.287 31.3276C139.451 31.2991 139.606 31.2334 139.74 31.1356C139.963 30.9524 140.227 30.8258 140.51 30.7668C140.793 30.7077 141.086 30.7179 141.363 30.7965C141.605 30.9228 141.796 31.1284 141.904 31.3787C142.035 31.6573 142.245 31.8907 142.509 32.0491C143.409 32.484 143.523 34.5105 143.247 36.2095C142.982 37.8471 142.405 39.0418 141.844 39.1146C141.412 39.1706 141.363 39.2026 141.334 39.28L141.307 39.3493L141.358 39.4122C141.599 39.4928 141.855 39.5203 142.108 39.4929Z" fill="#2F2E41"/>
<path d="M134.937 67.111L130.783 61.8179C126.552 62.9831 119.043 69.6755 119.043 69.6755L103.624 76.3668C103.109 76.2803 102.581 76.331 102.092 76.5136C101.603 76.6962 101.171 77.0044 100.839 77.4071C100.507 77.8098 100.287 78.2929 100.202 78.8076C100.116 79.3224 100.167 79.8507 100.35 80.3393C100.533 80.8279 100.842 81.2597 101.245 81.5911C101.648 81.9225 102.132 82.1419 102.647 82.2271C103.161 82.3124 103.69 82.2605 104.178 82.0767C104.666 81.8929 105.098 81.5837 105.429 81.1801L125.628 75.545L134.937 67.111Z" fill="#FFB8B8"/>
<path d="M133.942 68.3214L140.497 61.0145L140.861 55.837C140.929 54.8203 140.711 53.805 140.232 52.9057C139.753 52.0064 139.032 51.259 138.15 50.7479C136.95 50.0632 135.535 49.8596 134.191 50.1782C132.847 50.4968 131.675 51.3139 130.91 52.4642C128.594 55.9548 126.102 60.6742 127.384 63.335L127.397 63.362L133.942 68.3214Z" fill="#E60C2B"/>
<path d="M73.5286 95.7852L56.4926 87.0602C55.2808 86.4396 54.8794 84.7935 55.5978 83.3908L66.7056 61.7021C67.424 60.2994 68.9944 59.6631 70.2061 60.2837L87.2421 69.0086C88.4539 69.6292 88.8553 71.2753 88.1369 72.6781L77.0291 94.3667C76.3106 95.7695 74.7403 96.4058 73.5286 95.7852Z" fill="#E6E6E6"/>
<path d="M70.6176 91.7744L59.0432 85.8466C57.9082 85.2654 57.5322 83.7237 58.2051 82.41L67.4333 64.3914C68.1061 63.0777 69.5768 62.4818 70.7117 63.0631L84.6913 70.2227C85.8262 70.8039 86.2021 72.3455 85.5292 73.6592L80.516 83.4479C77.5191 89.2996 75.6728 94.3634 70.6176 91.7744Z" fill="white"/>
<path d="M76.3403 81.9343L66.0885 76.6839C65.9631 76.5946 65.8741 76.4631 65.8376 76.3136C65.8011 76.1641 65.8197 76.0064 65.8898 75.8694C65.96 75.7324 66.0771 75.6252 66.2197 75.5674C66.3624 75.5096 66.5211 75.5051 66.6668 75.5546L76.9186 80.8051C77.044 80.8944 77.133 81.0258 77.1695 81.1753C77.206 81.3249 77.1874 81.4825 77.1173 81.6195C77.0471 81.7565 76.93 81.8637 76.7873 81.9215C76.6447 81.9793 76.486 81.9839 76.3403 81.9343Z" fill="#E60C2B"/>
<path d="M67.2854 80.1136L64.9459 78.9154C64.8205 78.8261 64.7315 78.6946 64.695 78.5451C64.6585 78.3955 64.6771 78.2379 64.7473 78.1009C64.8174 77.9639 64.9345 77.8567 65.0772 77.7989C65.2198 77.7411 65.3785 77.7365 65.5243 77.786L67.8638 78.9842C67.9892 79.0736 68.0782 79.205 68.1147 79.3545C68.1511 79.5041 68.1326 79.6617 68.0624 79.7987C67.9923 79.9357 67.8752 80.0429 67.7325 80.1007C67.5899 80.1585 67.4312 80.1631 67.2854 80.1136Z" fill="#E60C2B"/>
<path d="M70.2855 84.4667L63.8023 81.1463C63.677 81.057 63.5879 80.9256 63.5515 80.776C63.515 80.6265 63.5335 80.4688 63.6037 80.3318C63.6739 80.1948 63.791 80.0876 63.9336 80.0298C64.0763 79.972 64.235 79.9675 64.3807 80.017L70.8639 83.3374C70.9893 83.4267 71.0783 83.5581 71.1148 83.7077C71.1513 83.8572 71.1327 84.0149 71.0625 84.1519C70.9924 84.2889 70.8753 84.3961 70.7326 84.4539C70.59 84.5117 70.4313 84.5162 70.2855 84.4667Z" fill="#E60C2B"/>
<path d="M80.3969 74.0129L70.1451 68.7625C70.0197 68.6732 69.9307 68.5418 69.8942 68.3922C69.8578 68.2427 69.8763 68.085 69.9465 67.948C70.0166 67.811 70.1337 67.7038 70.2764 67.646C70.419 67.5882 70.5777 67.5837 70.7235 67.6332L80.9753 72.8837C81.1006 72.973 81.1897 73.1044 81.2261 73.2539C81.2626 73.4035 81.2441 73.5611 81.1739 73.6981C81.1037 73.8351 80.9866 73.9423 80.844 74.0001C80.7013 74.0579 80.5427 74.0625 80.3969 74.0129Z" fill="#E60C2B"/>
<path d="M71.3421 72.1922L69.0025 70.994C68.8772 70.9047 68.7881 70.7732 68.7517 70.6237C68.7152 70.4741 68.7337 70.3165 68.8039 70.1795C68.8741 70.0425 68.9912 69.9353 69.1338 69.8775C69.2765 69.8197 69.4352 69.8151 69.5809 69.8647L71.9205 71.0629C72.0458 71.1522 72.1349 71.2836 72.1713 71.4331C72.2078 71.5827 72.1892 71.7403 72.1191 71.8773C72.0489 72.0143 71.9318 72.1215 71.7892 72.1793C71.6465 72.2371 71.4878 72.2417 71.3421 72.1922Z" fill="#E60C2B"/>
<path d="M74.3432 76.5453L67.8599 73.2249C67.7346 73.1356 67.6455 73.0042 67.6091 72.8546C67.5726 72.7051 67.5912 72.5474 67.6613 72.4104C67.7315 72.2734 67.8486 72.1663 67.9912 72.1085C68.1339 72.0507 68.2926 72.0461 68.4383 72.0956L74.9216 75.416C75.0469 75.5053 75.1359 75.6367 75.1724 75.7863C75.2089 75.9358 75.1903 76.0935 75.1202 76.2305C75.05 76.3675 74.9329 76.4747 74.7902 76.5325C74.6476 76.5903 74.4889 76.5948 74.3432 76.5453Z" fill="#E60C2B"/>
<path d="M59.4111 76.9032L55.5625 62.5753L65.8471 60.6284L65.2941 70.463L78.8072 84.3771C79.5226 84.3478 80.2311 84.5274 80.8462 84.8938C81.4613 85.2602 81.9565 85.7977 82.2714 86.4407C82.5864 87.0838 82.7074 87.8045 82.6198 88.5151C82.5322 89.2257 82.2397 89.8955 81.778 90.4428C81.3163 90.99 80.7054 91.3911 80.0197 91.5971C79.3339 91.8032 78.6031 91.8052 77.9162 91.6031C77.2294 91.4009 76.6162 91.0033 76.1514 90.4587C75.6866 89.9141 75.3903 89.246 75.2987 88.5359L59.4111 76.9032Z" fill="#A0616A"/>
<path d="M54.5105 46.5106C51.0196 49.2665 55.5002 64.6821 55.5002 64.6821C56.194 63.9208 57.0001 75.1727 57.848 74.7895C60.258 73.7007 64.6751 69.9458 66.3779 70.2519C67.3518 70.4269 66.3315 62.8093 66.3315 62.8093C66.3315 62.8093 66.1438 58.4415 65.7911 52.8266C65.7209 51.2374 65.2496 49.6917 64.4213 48.3335C63.593 46.9754 62.4345 45.8489 61.0537 45.0589C61.0537 45.0589 58.0015 43.7546 54.5105 46.5106Z" fill="#3F3D56"/>
<path d="M112.597 108.705L103.301 104.315C103.102 104.222 102.927 104.085 102.789 103.914C102.65 103.743 102.553 103.543 102.503 103.33C102.452 103.12 102.45 102.903 102.496 102.692C102.541 102.482 102.634 102.285 102.767 102.116C105.46 98.674 107.309 94.6493 108.166 90.3642C108.231 90.036 108.408 89.7405 108.666 89.528C108.924 89.3155 109.248 89.1991 109.583 89.1987C114.324 89.2149 117.867 90.9461 120.114 94.3437C120.233 94.5204 120.311 94.7209 120.344 94.9311C120.378 95.1412 120.364 95.3561 120.306 95.5607C119.005 100.045 117.025 104.304 114.435 108.189C114.243 108.483 113.951 108.697 113.613 108.792C113.275 108.887 112.914 108.856 112.597 108.705Z" fill="#E6E6E6"/>
<path d="M115.331 102.548L108.223 99.1918C108.046 99.1083 107.91 98.9579 107.844 98.7738C107.778 98.5897 107.788 98.387 107.871 98.2101C107.955 98.0333 108.105 97.8969 108.289 97.8309C108.473 97.7649 108.676 97.7747 108.853 97.8582L115.961 101.215C116.049 101.256 116.127 101.314 116.192 101.386C116.257 101.458 116.308 101.542 116.34 101.633C116.373 101.724 116.388 101.821 116.383 101.917C116.378 102.014 116.354 102.109 116.313 102.196C116.272 102.284 116.214 102.363 116.142 102.428C116.07 102.493 115.986 102.543 115.895 102.576C115.804 102.608 115.707 102.623 115.611 102.618C115.514 102.613 115.419 102.59 115.331 102.548Z" fill="white"/>
<path d="M116.436 100.209L109.328 96.8529C109.151 96.7694 109.015 96.6191 108.949 96.435C108.883 96.2509 108.892 96.0481 108.976 95.8713C109.059 95.6944 109.21 95.558 109.394 95.492C109.578 95.426 109.781 95.4358 109.958 95.5193L117.066 98.8759C117.243 98.9594 117.379 99.1097 117.445 99.2938C117.511 99.4779 117.501 99.6807 117.418 99.8575C117.334 100.034 117.184 100.171 117 100.237C116.816 100.303 116.613 100.293 116.436 100.209Z" fill="white"/>
<path d="M106.937 26.8023L106.276 26.8748C103.325 15.2816 97.6071 7.24996 89.7382 3.64801C79.7349 -0.930706 67.3654 2.14399 54.9083 12.3058C42.3879 22.5196 31.304 38.6528 23.6987 57.7345L23.0566 57.4407C30.6954 38.2757 41.8361 22.0645 54.4267 11.794C67.0805 1.47153 79.7024 -1.62571 89.9674 3.0729C98.0619 6.77806 103.93 14.9836 106.937 26.8023Z" fill="#F2F2F2"/>
<path d="M33.9391 41.9007C32.2088 45.5459 30.5629 49.3223 29.0472 53.125C20.3253 75.008 15.9054 97.3563 16.2666 117.755L15.5849 117.682C15.2234 97.2077 19.656 74.7824 28.4052 52.8312C29.9253 49.0178 31.5758 45.2307 33.3111 41.5752L33.9391 41.9007Z" fill="#F2F2F2"/>
<path d="M33.612 56.9368C31.8816 60.582 30.2358 64.3585 28.7201 68.1611C19.9982 90.0441 15.5783 112.392 15.9394 132.791L15.2578 132.718C14.8962 112.244 19.3288 89.8185 28.0781 67.8673C29.5981 64.0539 31.2486 60.2668 32.984 56.6113L33.612 56.9368Z" fill="#F2F2F2"/>
<path d="M15.2897 62.4057C16.0433 61.273 15.5973 59.6517 14.2935 58.7843C12.9898 57.917 11.3221 58.132 10.5685 59.2646C9.81497 60.3972 10.261 62.0186 11.5647 62.886C12.8684 63.7533 14.5362 63.5383 15.2897 62.4057Z" fill="#CCCCCC"/>
<path d="M175.748 103.308C176.501 102.175 176.055 100.554 174.752 99.6867C173.448 98.8193 171.78 99.0343 171.027 100.167C170.273 101.3 170.719 102.921 172.023 103.788C173.326 104.656 174.994 104.441 175.748 103.308Z" fill="#CCCCCC"/>
</g>
<defs>
<clipPath id="clip0_2457_26515">
<rect width="211" height="171.133" fill="white" transform="translate(0.5 0.933105)"/>
</clipPath>
</defs>
</svg>
