<svg width="18" height="20" viewBox="0 0 18 20" fill="none" xmlns="http://www.w3.org/2000/svg">
<path d="M8 20C5.68333 19.4167 3.77083 18.0875 2.2625 16.0125C0.754167 13.9375 0 11.6333 0 9.1V3L8 0L16 3V9.1C16 9.26667 15.9958 9.43333 15.9875 9.6C15.9792 9.76667 15.9667 9.93333 15.95 10.1C15.8 10.0667 15.6458 10.0417 15.4875 10.025C15.3292 10.0083 15.1667 10 15 10C14.8167 10 14.6417 10.0083 14.475 10.025C14.3083 10.0417 14.1333 10.0667 13.95 10.1C13.9667 9.93333 13.9792 9.77083 13.9875 9.6125C13.9958 9.45417 14 9.28333 14 9.1V4.375L8 2.125L2 4.375V9.1C2 11.1167 2.56667 12.95 3.7 14.6C4.83333 16.25 6.26667 17.35 8 17.9C8.35 17.7833 8.69167 17.6417 9.025 17.475C9.35833 17.3083 9.68333 17.1167 10 16.9V19.25C9.68333 19.4167 9.35833 19.5625 9.025 19.6875C8.69167 19.8125 8.35 19.9167 8 20ZM12.85 20C12.6167 20 12.4167 19.9167 12.25 19.75C12.0833 19.5833 12 19.3833 12 19.15V15.85C12 15.6167 12.0833 15.4167 12.25 15.25C12.4167 15.0833 12.6167 15 12.85 15H13V14C13 13.45 13.1958 12.9792 13.5875 12.5875C13.9792 12.1958 14.45 12 15 12C15.55 12 16.0208 12.1958 16.4125 12.5875C16.8042 12.9792 17 13.45 17 14V15H17.15C17.3833 15 17.5833 15.0833 17.75 15.25C17.9167 15.4167 18 15.6167 18 15.85V19.15C18 19.3833 17.9167 19.5833 17.75 19.75C17.5833 19.9167 17.3833 20 17.15 20H12.85ZM14 15H16V14C16 13.7167 15.9042 13.4792 15.7125 13.2875C15.5208 13.0958 15.2833 13 15 13C14.7167 13 14.4792 13.0958 14.2875 13.2875C14.0958 13.4792 14 13.7167 14 14V15Z" fill="#E60C2B"/>
</svg>
