<svg width="84" height="64" viewBox="0 0 84 64" fill="none" xmlns="http://www.w3.org/2000/svg">
<g clip-path="url(#clip0_1770_2225)">
<path d="M8.33355 0.517796C7.81516 0.632801 7.29677 2.47287 6.20239 3.56542C5.45361 4.25544 4.53203 4.25544 4.01364 5.11798C3.78324 5.40549 3.89844 6.03801 3.66804 6.55553C3.26485 7.70558 1.76728 7.82058 1.76728 8.97063C1.76728 10.2357 3.03446 10.5232 4.07124 11.5007C4.93522 12.2483 5.05042 12.7658 5.972 13.0533C6.83598 13.3408 8.10316 12.4208 9.25514 12.7658C10.2343 13.0533 11.1559 13.2833 11.3863 14.2033C11.6167 15.1234 11.3863 16.5034 10.2343 16.2734C9.83112 16.2734 8.10316 15.6409 6.0872 15.8709C3.55285 16.1584 0.672902 16.9059 0.500105 19.7235C0.384907 21.2761 2.28567 23.0587 4.07124 22.7712C5.33841 22.5412 4.70482 20.9886 5.45361 20.2411C6.43279 19.321 11.5591 23.4612 16.455 23.4612C18.471 23.4612 20.0261 22.9437 21.5237 21.3911C21.6389 21.2761 21.8693 20.9886 22.0421 20.9886C22.2725 20.9886 22.5605 21.2186 22.6757 21.2761C26.5924 24.3812 29.5299 30.5915 43.8145 30.649C45.8304 30.649 48.1344 31.569 50.0351 33.2366C51.7055 34.7891 52.6847 37.2042 53.6063 39.6193C55.1039 43.2995 57.6382 46.8071 61.5549 50.6598C61.7853 50.8898 64.9533 53.3624 65.2413 53.4774C65.2413 53.4774 65.5869 54.1099 65.4717 54.3974C65.3565 56.8125 65.0685 63.5978 70.2524 63.8853C71.5195 64.0003 71.2315 63.0227 71.2315 62.4477C71.2315 61.2977 71.0011 60.0326 71.6347 58.8826C72.4987 57.215 69.8492 56.4675 69.8492 52.8448C69.9644 50.1422 67.6028 50.5447 66.4508 48.5897C65.8172 47.4396 65.1837 46.6921 65.1837 45.2545C65.4141 37.0317 63.3981 31.569 62.4189 30.304C61.6701 29.2689 60.9213 28.9239 61.6701 28.4064C65.99 25.5888 66.9692 23.0012 66.9692 23.0012C69.2732 17.6535 71.2891 12.7658 74.1691 10.6957C74.6875 10.2932 76.1851 9.14313 77.1066 8.74062C79.7562 7.47557 81.1386 6.78554 81.8873 6.03801C83.0393 4.88797 84.1337 2.35787 82.9241 0.920312C81.4266 -0.977262 79.0074 0.517796 77.8554 1.20782C69.9068 5.92301 68.7548 14.0308 65.99 18.746C63.7437 22.4837 60.2878 25.3013 57.1198 25.5313C54.7007 25.7613 52.1663 25.2438 49.632 24.0937C43.4113 21.3911 40.0129 17.941 39.149 17.3085C37.5362 16.0434 24.634 3.45041 14.0358 2.87539C14.0358 2.87539 12.7687 0.287787 12.4231 0.287787C11.6743 0.172783 10.8103 1.84035 10.2919 2.07036C9.71593 2.35787 8.85194 0.402792 8.33355 0.517796Z" fill="#6C767E"/>
</g>
<defs>
<clipPath id="clip0_1770_2225">
<rect width="83" height="64" fill="white" transform="translate(0.5)"/>
</clipPath>
</defs>
</svg>
