<svg width="56" height="70" viewBox="0 0 56 70" fill="none" xmlns="http://www.w3.org/2000/svg">
<g clip-path="url(#clip0_1770_3515)">
<path d="M53.7771 24.0412C49.2711 26.8824 46.488 31.7529 46.488 37.1647C46.488 43.2529 50.0663 48.8 55.5 51.1C54.4398 54.6176 52.8494 57.8647 50.8614 60.8412C47.9458 65.0353 44.8976 69.3647 40.3916 69.3647C35.8855 69.3647 34.5602 66.6588 29.259 66.6588C24.0904 66.6588 22.2349 69.5 17.994 69.5C13.753 69.5 10.8373 65.5765 7.5241 60.7059C3.1506 53.9412 0.63253 46.0941 0.5 37.8412C0.5 24.4471 8.98193 17.2765 17.4639 17.2765C21.9699 17.2765 25.6807 20.2529 28.4639 20.2529C31.1145 20.2529 35.3554 17.1412 40.3916 17.1412C45.6928 17.0059 50.7289 19.5765 53.7771 24.0412ZM38.006 11.4588C40.259 8.75294 41.4518 5.37059 41.5843 1.85294C41.5843 1.44706 41.5843 0.905882 41.4518 0.5C37.6084 0.905882 34.0301 2.8 31.512 5.77647C29.259 8.34706 27.9337 11.5941 27.8012 15.1118C27.8012 15.5176 27.8012 15.9235 27.9337 16.3294C28.1988 16.3294 28.5964 16.4647 28.8614 16.4647C32.4398 16.1941 35.753 14.3 38.006 11.4588Z" fill="#6C767E"/>
</g>
<defs>
<clipPath id="clip0_1770_3515">
<rect width="55" height="69" fill="white" transform="translate(0.5 0.5)"/>
</clipPath>
</defs>
</svg>
