<svg width="96" height="28" viewBox="0 0 96 28" fill="none" xmlns="http://www.w3.org/2000/svg">
<g clip-path="url(#clip0_1770_3525)">
<path d="M59.9731 11.9107C70.9865 7.49107 77.8398 4.94643 95.9998 0.5C86.1331 1.14286 64.3198 2.66964 49.2798 5.61607L59.9731 11.9107Z" fill="#6C767E"/>
<path d="M25.7334 26.5889H40.1334C42.9867 22.2496 45.8134 20.1335 49.1201 17.7764C46.6134 16.8121 44.1067 15.8746 41.5467 14.9639C32.3467 19.0353 27.2534 24.4996 25.7334 26.5889Z" fill="#6C767E"/>
<path d="M28.56 10.8125C15.7333 15.4196 8.58662 20.4018 3.78662 26.5893H19.68C21.2266 24.4196 27.12 18.1786 38.2133 13.8393C35.1466 12.7946 29.84 11.1339 28.56 10.8125Z" fill="#6C767E"/>
<path d="M35.1733 1.08887H0C35.44 7.51744 52.5333 15.7942 80 27.4996C77.6533 25.7317 39.7867 3.33887 35.1733 1.08887Z" fill="#6C767E"/>
</g>
<defs>
<clipPath id="clip0_1770_3525">
<rect width="96" height="27" fill="white" transform="translate(0 0.5)"/>
</clipPath>
</defs>
</svg>
