<svg width="82" height="36" viewBox="0 0 82 36" fill="none" xmlns="http://www.w3.org/2000/svg">
<g clip-path="url(#clip0_1770_3520)">
<path fill-rule="evenodd" clip-rule="evenodd" d="M65.6621 0.5L77.8379 34.4182H82.0621V34.6727H68.7061V34.4182H72.6197L68.6439 23.2818H60.4439L60.5061 23.4091C60.8167 24.3636 61.003 25.4455 61.003 26.4636V30.6636C61.003 32.8273 61.9349 34.9909 63.6742 34.9909C64.7303 34.9909 65.5379 34.6091 66.5318 33.7182L66.6561 33.8455C65.6 34.9909 64.2955 35.5 62.3076 35.5C60.8167 35.5 59.5742 35.1182 58.5803 34.4182L58.3939 34.2909C57.0894 33.2727 56.2197 31.5545 55.847 29.2636L55.7849 28.8818L55.7227 28.3091V28.1818L53.4864 34.4182H56.6545V34.6727H50.0076V34.4182H53.2379L55.7227 27.5455C55.7227 27.1636 55.6606 26.7182 55.6606 26.3364V23.4091C55.6606 19.7182 52.9894 17.6182 48.3303 17.6182H43.7333V34.4818H47.7091V34.7364H32.2409V34.4818H36.1545L32.1788 23.3455H21.0591L17.0833 34.3545H17.2697C22.4879 33.4636 24.8485 29.3909 24.9106 25.1273H25.1591V34.8H0L18.6985 1.9H11.1818C4.9697 1.9 2.11212 6.8 2.05 11.7H1.86364V1.64545H24.5379L24.4136 1.9L5.83939 34.4818H15.5924C15.8409 34.4818 16.0894 34.4818 16.3379 34.4818C16.5242 34.4818 16.6485 34.4818 16.8349 34.4182H16.897L29.0106 0.5H29.2591L38.8258 27.2273V1.9H34.9121V1.64545H48.4546C54.9773 1.64545 59.5121 5.08182 59.5121 9.98182C59.5121 13.5455 56.4061 16.5364 51.8091 17.3636L50.9394 17.4909L51.8091 17.5545C54.6046 17.8727 56.8409 18.7636 58.3939 20.1636L65.4136 0.5H65.6621ZM60.3197 23.0273L68.4576 23.0909L62.9909 7.88182L58.5182 20.4182L58.7667 20.6727C59.45 21.3091 59.947 22.1364 60.3197 23.0273ZM43.7333 17.3636V1.9H47.2121C51.8712 1.9 54.3561 4.7 54.3561 10.0455C54.3561 15.7091 52.9273 17.4273 48.3303 17.4273C48.3303 17.3636 43.7333 17.3636 43.7333 17.3636ZM26.65 7.81818L21.1833 23.0273H32.1167L26.65 7.81818Z" fill="#6C767E"/>
</g>
<defs>
<clipPath id="clip0_1770_3520">
<rect width="82" height="35" fill="white" transform="translate(0 0.5)"/>
</clipPath>
</defs>
</svg>
