<svg width="60" height="60" viewBox="0 0 60 60" fill="none" xmlns="http://www.w3.org/2000/svg">
<g clip-path="url(#clip0_1770_3475)">
<path d="M46.4588 38.571C41.5047 44.4639 35.89 49.7139 29.2845 53.9996C25.3212 56.4639 21.2478 58.6067 16.6239 59.571C13.3212 60.2139 10.0184 60.321 6.82576 59.2496C2.64228 57.7496 0.110166 54.321 7.3981e-05 50.0353C-0.110018 45.7496 1.32117 41.9996 3.52301 38.3567C6.2753 33.9639 9.79824 30.321 13.8716 27.2139C18.7157 23.4639 23.89 20.4639 29.8349 18.6424C31.7065 18.1067 33.6881 17.6782 35.7799 17.571C37.101 17.4639 38.5322 17.6782 39.8533 18.1067C42.8258 18.9639 44.257 21.7496 43.4863 24.6424C43.4863 24.7496 43.3762 24.9639 43.3762 25.1782L43.4863 25.2853C44.0368 24.6424 44.5872 23.9996 45.0276 23.2496C47.2294 20.2496 49.2111 17.1424 50.2019 13.4996C50.5322 12.2139 50.8625 10.821 50.6423 9.53529C50.2019 6.96387 48.5505 5.46387 46.1285 4.71387C43.5964 3.64244 41.0643 3.85672 38.5322 4.2853C33.6881 5.14244 29.2845 6.96387 24.9909 9.32101C23.2294 10.2853 21.468 11.3567 19.7065 12.4282L19.2661 11.7853C19.9267 11.2496 20.4771 10.821 21.1377 10.2853C27.0826 5.89244 33.468 2.57101 40.734 0.856725C44.367 -0.000418261 48.0001 -0.42899 51.6331 0.428153C56.4771 1.49958 59.6698 5.24958 60.0001 10.071C60.2203 13.9282 59.2294 17.4639 57.6881 20.8924C54.9359 27.4281 50.9725 33.2139 46.4588 38.571ZM37.101 21.2139C35.5597 20.9996 34.1285 21.321 32.5872 21.7496C26.5322 23.571 21.6881 27.2139 17.7248 31.821C16.4037 33.321 15.3028 35.0353 14.7524 36.9639C13.8716 40.1781 15.8533 42.6424 19.156 42.6424C20.9175 42.6424 22.4588 42.2139 24.0001 41.4639C29.6147 38.8924 34.2386 35.0353 38.312 30.5353C39.4129 29.3567 40.0735 27.8567 40.5138 26.2496C41.3946 23.4639 40.0735 21.5353 37.101 21.2139Z" fill="#6C767E"/>
</g>
<defs>
<clipPath id="clip0_1770_3475">
<rect width="60" height="60" fill="white"/>
</clipPath>
</defs>
</svg>
