<svg width="92" height="14" viewBox="0 0 92 14" fill="none" xmlns="http://www.w3.org/2000/svg">
<g clip-path="url(#clip0_1770_544)">
<path d="M3.49559 3.79377C3.42805 3.52518 3.44493 3.25659 3.47871 3.10552C3.56314 2.68585 3.85022 2.23261 4.67768 2.23261C5.45448 2.23261 5.89354 2.70264 5.89354 3.42446C5.89354 3.65947 5.89354 4.23022 5.89354 4.23022H9.1696V3.30695C9.18649 0.453238 6.60279 0 4.74523 0C2.41483 0 0.506608 0.772182 0.151982 2.90408C0.0506608 3.49161 0.0337739 4.01199 0.185756 4.66667C0.759912 7.33573 5.43759 8.10791 6.11307 9.80336C6.24816 10.1223 6.1975 10.5252 6.14684 10.777C6.04552 11.2134 5.74156 11.6667 4.86344 11.6667C4.03598 11.6667 3.54626 11.1966 3.54626 10.4748V9.21583H0V10.223C0 13.1439 2.31351 14.0168 4.779 14.0168C7.16006 14.0168 9.10206 13.211 9.42291 11.0288C9.57489 9.90408 9.45668 9.16547 9.40602 8.89688C8.86564 6.1271 3.86711 5.32134 3.49559 3.79377ZM46.2702 3.81055C46.2195 3.55875 46.2364 3.27338 46.2533 3.13909C46.3546 2.71942 46.6248 2.26619 47.4523 2.26619C48.2122 2.26619 48.6513 2.73621 48.6513 3.44125C48.6513 3.67626 48.6513 4.247 48.6513 4.247H51.8935V3.34053C51.8935 0.520384 49.3605 0.0839329 47.5198 0.0839329C45.2063 0.0839329 43.315 0.839329 42.9604 2.95444C42.8759 3.52518 42.8421 4.04556 42.9941 4.70024C43.5514 7.33573 48.1784 8.10791 48.8539 9.78657C48.9721 10.1055 48.9383 10.5084 48.8708 10.7434C48.7695 11.1799 48.4824 11.6163 47.6043 11.6163C46.7937 11.6163 46.2871 11.1463 46.2871 10.4412V9.18225H42.7915V10.1727C42.7915 13.06 45.0712 13.9329 47.5198 13.9329C49.8671 13.9329 51.8091 13.1271 52.1131 10.9784C52.2651 9.85372 52.1468 9.13189 52.0962 8.86331C51.5727 6.14388 46.6417 5.33813 46.2702 3.81055ZM76.1263 10.9448L73.036 0.419664H68.1557V13.3621H71.3811L71.1953 2.5012L74.522 13.3621H79.1997V0.419664H75.9574L76.1263 10.9448ZM14.0837 0.419664L11.6351 13.4964H15.1814L17.022 1.39329L18.812 13.4964H22.3414L19.9266 0.419664H14.0837ZM33.9427 0.419664L32.2878 10.6427L30.6329 0.419664H25.2629L24.9758 13.4964H28.2687L28.3532 1.39329L30.616 13.4964H33.9427L36.2056 1.39329L36.29 13.4964H39.583L39.2959 0.419664H33.9427ZM64.5081 0.419664H61.1814V10.0887C61.1814 10.2566 61.1814 10.4412 61.1476 10.5923C61.08 10.9113 60.8098 11.5492 59.8811 11.5492C58.9692 11.5492 58.699 10.9281 58.6314 10.5923C58.5977 10.458 58.5977 10.2566 58.5977 10.0887V0.419664H55.2709V9.78657C55.2709 10.0216 55.2878 10.5252 55.3047 10.6427C55.5411 13.0767 57.4662 13.8825 59.8811 13.8825C62.2959 13.8825 64.2379 13.0935 64.4743 10.6427C64.4912 10.5084 64.525 10.0216 64.5081 9.78657V0.419664ZM87.3392 6.14388V8.05755H88.6902V9.95444C88.6902 10.1223 88.6902 10.307 88.6564 10.458C88.6057 10.8106 88.268 11.4149 87.3054 11.4149C86.3598 11.4149 86.022 10.8106 85.9714 10.458C85.9545 10.307 85.9376 10.1223 85.9376 9.95444V3.97842C85.9376 3.76019 85.9545 3.54197 86.0051 3.35731C86.0727 3.03837 86.3598 2.41727 87.3054 2.41727C88.3186 2.41727 88.5551 3.07194 88.6226 3.35731C88.6564 3.54197 88.6564 3.86091 88.6564 3.86091V4.58273H91.9662V4.14628C91.9662 4.14628 91.9831 3.69305 91.9493 3.27338C91.696 0.839329 89.6527 0.0671463 87.3223 0.0671463C84.9919 0.0671463 82.9993 0.856115 82.7122 3.29017C82.6784 3.50839 82.6446 3.91127 82.6446 4.16307V9.65228C82.6446 9.88729 82.6446 10.0719 82.6953 10.5084C82.9148 12.8921 84.9919 13.7314 87.3223 13.7314C89.6696 13.7314 91.7298 12.8921 91.9493 10.5084C91.9831 10.0719 92 9.88729 92 9.65228V6.14388H87.3392Z" fill="#6C767E"/>
</g>
<defs>
<clipPath id="clip0_1770_544">
<rect width="92" height="14" fill="white"/>
</clipPath>
</defs>
</svg>
