<svg width="86" height="50" viewBox="0 0 86 50" fill="none" xmlns="http://www.w3.org/2000/svg">
<g clip-path="url(#clip0_1770_3509)">
<path d="M55.2437 24.9755C54.9499 25.2207 54.5581 25.466 54.1173 25.7603C51.2768 27.7713 47.1139 29.1937 41.7266 29.1937H41.3838C35.9966 29.1937 31.8337 27.8203 28.9932 25.7603C28.5524 25.466 28.1606 25.1717 27.8667 24.9755C28.1606 24.7302 28.5524 24.485 28.9932 24.1416C31.8337 22.1306 35.9966 20.7082 41.3838 20.7082H41.7266C47.1139 20.7082 51.2768 22.0816 54.1173 24.1416C54.5581 24.485 54.9009 24.7793 55.2437 24.9755ZM83.0615 8.2988C83.0615 8.2988 80.6128 6.43493 72.8747 3.59009C66.0672 1.03954 60.9248 0.5 60.9248 0.5V15.2147C60.9248 17.2748 60.3861 19.1877 58.7699 21.3458C52.9909 19.2367 47.5057 17.9124 41.5308 17.9124C35.5558 17.9124 30.0706 19.1877 24.2916 21.3458C22.7244 19.1877 22.1367 17.2748 22.1367 15.2147V0.5C22.1367 0.5 16.9453 1.03954 10.1378 3.54104C2.44875 6.43493 0 8.2988 0 8.2988C0.342825 14.9695 6.17084 20.9044 15.3292 25.0245C6.17084 29.0956 0.29385 35.0305 0 41.7012C0 41.7012 2.44875 43.5651 10.1868 46.4099C16.9943 48.9114 22.1367 49.451 22.1367 49.451L22.0877 34.7362C22.0877 32.6762 22.6754 30.7633 24.2426 28.6051C30.0216 30.7142 35.5068 31.9895 41.4818 31.9895C47.4567 31.9895 52.9419 30.7142 58.721 28.6051C60.2882 30.7633 60.8759 32.6271 60.8759 34.7362V49.451C60.8759 49.451 66.0182 48.9114 72.8257 46.4099C80.5638 43.5651 83.0125 41.7012 83.0125 41.7012C82.6697 35.0305 76.8417 29.0956 67.6834 24.9755C76.8907 20.9044 82.7187 14.9695 83.0615 8.2988ZM85.8041 39.9354C85.8041 40.2788 85.6082 40.6221 85.2654 40.7202C84.9225 40.8674 84.5797 40.7693 84.3348 40.524C84.09 40.2788 83.992 39.8864 84.1389 39.5921C84.2859 39.2487 84.5797 39.0526 84.9225 39.0526C85.1674 39.0526 85.3633 39.1506 85.5102 39.2978C85.7061 39.494 85.8041 39.6902 85.8041 39.9354ZM86 39.9354C86 39.494 85.7551 39.1507 85.3633 38.9545C84.9715 38.8073 84.5307 38.8564 84.2369 39.1997C83.943 39.494 83.8451 39.9354 83.992 40.3278C84.1389 40.7202 84.5307 40.9655 84.9715 40.9655C85.5102 40.9655 86 40.524 86 39.9354Z" fill="#6C767E"/>
<path d="M85.1676 40.4255H85.3635L85.0697 39.9841C85.1187 39.9841 85.2166 39.935 85.2656 39.886C85.3146 39.8369 85.3146 39.7389 85.3146 39.6898C85.3146 39.5427 85.2166 39.3955 84.9717 39.3955H84.6289V40.3765H84.7758V39.935H84.8738L85.1676 40.4255ZM84.7269 39.5427H84.8738C85.0207 39.5427 85.0697 39.5917 85.0697 39.6898C85.0697 39.7879 85.0207 39.8369 84.8738 39.8369H84.7269C84.7269 39.886 84.7269 39.5427 84.7269 39.5427Z" fill="#6C767E"/>
</g>
<defs>
<clipPath id="clip0_1770_3509">
<rect width="86" height="49" fill="white" transform="translate(0 0.5)"/>
</clipPath>
</defs>
</svg>
