<svg width="68" height="32" viewBox="0 0 68 32" fill="none" xmlns="http://www.w3.org/2000/svg">
<g clip-path="url(#clip0_1770_3467)">
<path d="M7.97446 31.9655C6.3392 31.94 4.69116 31.719 3.18749 30.8707C1.53946 29.9406 0.567243 28.4919 0.0217308 26.7161C-0.0332037 26.536 0.0153431 26.504 0.175037 26.4759C1.72257 26.2025 3.26883 25.9244 4.81381 25.6417C4.98756 25.6097 5.08082 25.6238 5.15108 25.8205C5.53435 26.8898 6.32515 27.4724 7.41617 27.6692C8.11532 27.8086 8.83679 27.7903 9.52796 27.6155C9.96233 27.4992 10.3405 27.2948 10.3992 26.7813C10.458 26.2677 10.2281 25.8946 9.6966 25.643C8.97606 25.3031 8.18909 25.2124 7.42384 25.0425C6.23464 24.7879 5.06821 24.4367 3.93613 23.9924C0.453542 22.6011 0.168649 18.4913 1.89078 16.1917C2.52061 15.351 3.29608 14.6791 4.27341 14.2971C6.8285 13.2967 9.42192 13.2418 11.9911 14.2332C13.6378 14.872 14.7174 16.115 15.4226 17.7119C15.5184 17.9291 15.4596 17.9841 15.2552 18.0454C13.9078 18.444 12.5621 18.8519 11.2182 19.2693C11.0278 19.328 10.9626 19.291 10.877 19.1236C10.5186 18.4593 9.93104 17.9479 9.22366 17.6844C8.51628 17.421 7.73729 17.4235 7.03163 17.6915C6.62026 17.8486 6.34814 18.1169 6.33026 18.5858C6.31493 19.0227 6.50273 19.3319 6.96009 19.5261C7.85437 19.9093 8.82148 20.009 9.75408 20.2389C10.6152 20.451 11.4788 20.6516 12.3232 20.9263C14.8042 21.7337 16.1559 23.71 15.977 26.3098C15.8224 28.6094 14.4976 30.0684 12.5353 31.0444C11.1211 31.7522 9.59056 31.9464 7.97446 31.9655Z" fill="white"/>
<path d="M38.0341 29.6388C36.7247 31.6662 34.8594 32.3868 32.5828 31.8042C31.0562 31.4209 30.0776 30.2009 29.9741 28.5017C29.923 27.6803 29.9409 26.8537 29.9396 26.0297C29.9396 23.6023 29.9396 21.1827 29.9307 18.7579C29.9307 18.4385 30.0188 18.3631 30.3305 18.3657C31.815 18.3819 33.3 18.3819 34.7853 18.3657C35.0779 18.3657 35.1686 18.4308 35.1686 18.7387C35.1558 21.3143 35.1597 23.8911 35.1686 26.4666C35.1667 26.7838 35.1885 27.1006 35.2338 27.4145C35.3079 27.9 35.5583 28.1121 36.0514 28.1594C37.03 28.2526 37.7211 27.5538 37.7237 26.4436C37.7237 23.8885 37.7339 21.3424 37.716 18.7924C37.716 18.4321 37.8208 18.3606 38.1568 18.3644C39.6157 18.3823 41.076 18.3785 42.5349 18.3644C42.8071 18.3644 42.9003 18.4155 42.899 18.7144C42.888 22.915 42.888 27.1152 42.899 31.3149C42.899 31.6266 42.8058 31.6879 42.5158 31.6841C41.1335 31.6696 39.7507 31.6696 38.3676 31.6841C38.1019 31.6841 38.0226 31.6228 38.0341 31.3532C38.0495 30.8141 38.0341 30.2699 38.0341 29.6388Z" fill="white"/>
<path d="M41.7794 4.80735C40.1306 3.32284 38.4787 1.84131 36.8238 0.36276C36.2553 -0.148259 35.8363 -0.12143 35.3266 0.447078C32.5577 3.53363 29.7918 6.62232 27.0289 9.71313C26.9694 9.7767 26.9235 9.85176 26.8941 9.9337C26.8646 10.0156 26.8522 10.1027 26.8577 10.1897C26.8654 11.0392 26.8577 11.8901 26.8577 12.7447C26.8577 13.5994 26.8577 14.4452 26.8577 15.2998C26.8604 15.5458 26.9594 15.7809 27.1336 15.9545C27.3077 16.1282 27.5431 16.2266 27.789 16.2286C29.248 16.2286 30.7082 16.2082 32.1659 16.2414C32.3663 16.2518 32.5663 16.2143 32.7493 16.1321C32.9324 16.0499 33.0932 15.9253 33.2186 15.7687C36.0922 12.5527 38.9663 9.33881 41.8408 6.12705C42.2215 5.69524 42.1972 5.18422 41.7794 4.80735ZM28.6399 15.5771C28.3968 15.5692 28.1654 15.4707 27.9912 15.301C27.817 15.1313 27.7125 14.9026 27.6983 14.6598C27.6969 14.4104 27.7932 14.1703 27.9665 13.991C28.1399 13.8117 28.3765 13.7074 28.6258 13.7004C28.7493 13.6983 28.8719 13.7208 28.9866 13.7664C29.1014 13.812 29.2059 13.8799 29.2943 13.9661C29.3827 14.0523 29.4531 14.1552 29.5015 14.2688C29.5499 14.3823 29.5753 14.5044 29.5763 14.6279C29.576 14.8773 29.4777 15.1166 29.3025 15.2942C29.1273 15.4718 28.8893 15.5734 28.6399 15.5771Z" fill="white"/>
<path d="M52.3158 26.7145C52.3158 28.2476 52.3055 29.7807 52.3234 31.3137C52.3234 31.6254 52.2289 31.6855 51.9402 31.6816C50.5451 31.6672 49.15 31.6672 47.7549 31.6816C47.4585 31.6816 47.3806 31.6101 47.3819 31.3099C47.3934 28.254 47.3819 25.1968 47.3959 22.1409C47.3959 21.8458 47.3346 21.7423 47.0254 21.7577C46.5706 21.7858 46.112 21.7577 45.6559 21.7679C45.4617 21.7679 45.4004 21.7206 45.4004 21.5124C45.4106 20.5491 45.4119 19.5846 45.4004 18.6213C45.4004 18.3862 45.4924 18.3504 45.6917 18.3543C46.1478 18.3658 46.6051 18.3428 47.0612 18.3645C47.3167 18.376 47.4087 18.307 47.3998 18.0336C47.3644 17.3744 47.4017 16.7134 47.5109 16.0624C47.8137 14.4578 48.8204 13.4919 50.3777 13.124C52.1113 12.7177 53.8565 12.9247 55.5952 13.1508C55.746 13.17 55.7702 13.2505 55.7702 13.3833C55.7702 14.4054 55.7702 15.4134 55.7702 16.4277C55.7702 16.59 55.7166 16.613 55.5684 16.5938C55.1417 16.5389 54.7124 16.498 54.2832 16.4584C54.1067 16.4399 53.929 16.4348 53.7517 16.4431C52.6147 16.5197 52.2685 16.9119 52.2736 18.0617C52.2736 18.2942 52.3285 18.3645 52.5662 18.3607C53.4911 18.3466 54.4173 18.3607 55.3423 18.3479C55.6131 18.3479 55.6821 18.4245 55.677 18.689C55.6604 19.6139 55.6629 20.5402 55.677 21.4664C55.677 21.704 55.6093 21.7653 55.3768 21.7615C54.4825 21.7487 53.5754 21.773 52.676 21.7487C52.3617 21.7398 52.3068 21.842 52.3106 22.132C52.3234 23.6701 52.3158 25.193 52.3158 26.7145Z" fill="white"/>
<path d="M63.8559 26.7341C63.8559 28.2672 63.8559 29.8002 63.8559 31.3333C63.8559 31.5977 63.7857 31.6795 63.5161 31.677C62.1108 31.6642 60.7055 31.6616 59.2913 31.677C58.9885 31.677 58.9387 31.5722 58.9399 31.3026C58.9489 28.2825 58.9399 25.2624 58.954 22.2423C58.954 21.859 58.8671 21.7236 58.4723 21.7581C58.0571 21.7951 57.6356 21.7581 57.2165 21.7709C57.007 21.7709 56.9252 21.7146 56.9278 21.4924C56.938 20.5406 56.9367 19.5888 56.9278 18.637C56.9278 18.4186 57.0096 18.3483 57.2191 18.3534C57.6892 18.3636 58.1593 18.3432 58.6244 18.3611C58.8799 18.3713 58.9489 18.278 58.945 18.0328C58.9361 17.3224 58.9195 16.6045 59.0805 15.9107C59.4394 14.3483 60.4858 13.4361 62.0073 13.1091C63.7039 12.7437 65.4133 12.9315 67.1175 13.1602C67.281 13.1819 67.3194 13.2764 67.3181 13.4234C67.3181 14.4122 67.3181 15.4023 67.3181 16.3924C67.3181 16.584 67.2516 16.6172 67.0626 16.5993C66.3727 16.5329 65.6867 16.3783 64.984 16.4946C64.0718 16.6453 63.626 17.2982 63.8227 18.1976C63.87 18.4173 64.0246 18.3521 64.1472 18.3534C65.0415 18.3534 65.9243 18.3662 66.8122 18.3534C67.1009 18.3534 67.2108 18.4147 67.2031 18.729C67.1801 19.6297 67.1852 20.5316 67.2031 21.4323C67.2031 21.6878 67.1367 21.7811 66.8646 21.7772C65.9703 21.7606 65.0888 21.7772 64.2009 21.7645C63.916 21.7581 63.8355 21.836 63.838 22.1235C63.8636 23.6629 63.8559 25.1985 63.8559 26.7341Z" fill="white"/>
<path d="M19.4555 25.1126C19.4555 24.1098 19.4453 23.1069 19.4555 22.1053C19.4555 21.8332 19.3788 21.7578 19.1144 21.7693C18.6583 21.791 18.2009 21.7693 17.7436 21.7795C17.5404 21.7795 17.4536 21.7399 17.4561 21.51C17.4689 20.5586 17.4689 19.6068 17.4561 18.6546C17.4561 18.4055 17.5494 18.3595 17.7678 18.3659C18.2252 18.38 18.6826 18.3582 19.1386 18.3749C19.3788 18.3838 19.4644 18.3212 19.467 18.0619C19.4746 16.8329 19.5142 15.6026 19.5219 14.3723C19.5219 14.1168 19.5998 14.0465 19.8375 14.044C21.2824 14.0286 22.7285 14.0095 24.1747 13.9775C24.4302 13.9775 24.489 14.058 24.4877 14.2995C24.4762 15.531 24.4877 16.7613 24.4762 17.9929C24.4762 18.2816 24.5337 18.3902 24.8467 18.3761C25.5047 18.3506 26.1664 18.3761 26.8256 18.3634C27.0812 18.357 27.1438 18.4375 27.1399 18.6879C27.1246 19.6145 27.1246 20.5407 27.1399 21.4665C27.1399 21.722 27.0569 21.7834 26.8167 21.7782C26.1319 21.7629 25.4459 21.7782 24.7611 21.768C24.5503 21.768 24.475 21.8217 24.4762 22.044C24.489 23.6307 24.4698 25.2161 24.4992 26.8028C24.5197 27.8453 24.9042 28.143 25.948 28.0357C26.2645 28.0152 26.5781 27.9635 26.8844 27.8811C27.1054 27.8121 27.1399 27.8977 27.1399 28.0944C27.1323 29.1612 27.1399 30.2267 27.1399 31.2883C27.1399 31.4314 27.154 31.5553 26.9508 31.5885C25.4293 31.844 23.9052 32.0152 22.3785 31.678C20.4992 31.2666 19.5602 30.1168 19.4721 28.0817C19.4299 27.0928 19.4644 26.1015 19.4644 25.1126H19.4555Z" fill="white"/>
</g>
<defs>
<clipPath id="clip0_1770_3467">
<rect width="67.328" height="32" fill="white"/>
</clipPath>
</defs>
</svg>
