<svg width="68" height="32" viewBox="0 0 68 32" fill="none" xmlns="http://www.w3.org/2000/svg">
<g clip-path="url(#clip0_1770_4186)">
<path d="M7.97446 31.9655C6.3392 31.94 4.69116 31.719 3.18749 30.8707C1.53946 29.9406 0.567243 28.4919 0.0217308 26.7161C-0.0332037 26.536 0.0153431 26.504 0.175037 26.4759C1.72257 26.2025 3.26883 25.9244 4.81381 25.6417C4.98756 25.6097 5.08082 25.6238 5.15108 25.8205C5.53435 26.8898 6.32515 27.4724 7.41617 27.6692C8.11532 27.8086 8.83679 27.7903 9.52796 27.6155C9.96233 27.4992 10.3405 27.2948 10.3992 26.7813C10.458 26.2677 10.2281 25.8946 9.6966 25.643C8.97606 25.3031 8.18909 25.2124 7.42384 25.0425C6.23464 24.7879 5.06821 24.4367 3.93613 23.9924C0.453542 22.6011 0.168649 18.4913 1.89078 16.1917C2.52061 15.351 3.29608 14.6791 4.27341 14.2971C6.8285 13.2967 9.42192 13.2418 11.9911 14.2332C13.6378 14.872 14.7174 16.115 15.4226 17.7119C15.5184 17.9291 15.4596 17.9841 15.2552 18.0454C13.9078 18.444 12.5621 18.8519 11.2182 19.2693C11.0278 19.328 10.9626 19.291 10.877 19.1236C10.5186 18.4593 9.93104 17.9479 9.22366 17.6844C8.51628 17.421 7.73729 17.4235 7.03163 17.6915C6.62026 17.8486 6.34814 18.1169 6.33026 18.5858C6.31493 19.0227 6.50273 19.3319 6.96009 19.5261C7.85437 19.9093 8.82148 20.009 9.75408 20.2389C10.6152 20.451 11.4788 20.6516 12.3232 20.9263C14.8042 21.7337 16.1559 23.71 15.977 26.3098C15.8224 28.6094 14.4976 30.0684 12.5353 31.0444C11.1211 31.7522 9.59056 31.9464 7.97446 31.9655Z" fill="#E60C2B"/>
<path d="M38.0337 29.6388C36.7242 31.6662 34.859 32.3868 32.5824 31.8042C31.0557 31.4209 30.0771 30.2009 29.9736 28.5017C29.9225 27.6803 29.9404 26.8537 29.9391 26.0297C29.9391 23.6023 29.9391 21.1827 29.9302 18.7579C29.9302 18.4385 30.0183 18.3631 30.33 18.3657C31.8146 18.3819 33.2995 18.3819 34.7849 18.3657C35.0774 18.3657 35.1681 18.4308 35.1681 18.7387C35.1553 21.3143 35.1592 23.8911 35.1681 26.4666C35.1662 26.7838 35.188 27.1006 35.2333 27.4145C35.3074 27.9 35.5578 28.1121 36.0509 28.1594C37.0295 28.2526 37.7207 27.5538 37.7232 26.4436C37.7232 23.8885 37.7334 21.3424 37.7155 18.7924C37.7155 18.4321 37.8203 18.3606 38.1563 18.3644C39.6153 18.3823 41.0755 18.3785 42.5345 18.3644C42.8066 18.3644 42.8998 18.4155 42.8986 18.7144C42.8875 22.915 42.8875 27.1152 42.8986 31.3149C42.8986 31.6266 42.8053 31.6879 42.5153 31.6841C41.133 31.6696 39.7503 31.6696 38.3671 31.6841C38.1014 31.6841 38.0222 31.6228 38.0337 31.3532C38.049 30.8141 38.0337 30.2699 38.0337 29.6388Z" fill="#E60C2B"/>
<path d="M41.7794 4.80735C40.1306 3.32284 38.4787 1.84131 36.8238 0.36276C36.2553 -0.148259 35.8363 -0.12143 35.3266 0.447078C32.5577 3.53363 29.7918 6.62232 27.0289 9.71313C26.9694 9.7767 26.9235 9.85176 26.8941 9.9337C26.8646 10.0156 26.8522 10.1027 26.8577 10.1897C26.8654 11.0392 26.8577 11.8901 26.8577 12.7447C26.8577 13.5994 26.8577 14.4452 26.8577 15.2998C26.8604 15.5458 26.9594 15.7809 27.1336 15.9545C27.3077 16.1282 27.5431 16.2266 27.789 16.2286C29.248 16.2286 30.7082 16.2082 32.1659 16.2414C32.3663 16.2518 32.5663 16.2143 32.7493 16.1321C32.9324 16.0499 33.0932 15.9253 33.2186 15.7687C36.0922 12.5527 38.9663 9.33881 41.8408 6.12705C42.2215 5.69524 42.1972 5.18422 41.7794 4.80735ZM28.6399 15.5771C28.3968 15.5692 28.1654 15.4707 27.9912 15.301C27.817 15.1313 27.7125 14.9026 27.6983 14.6598C27.6969 14.4104 27.7932 14.1703 27.9665 13.991C28.1399 13.8117 28.3765 13.7074 28.6258 13.7004C28.7493 13.6983 28.8719 13.7208 28.9866 13.7664C29.1014 13.812 29.2059 13.8799 29.2943 13.9661C29.3827 14.0523 29.4531 14.1552 29.5015 14.2688C29.5499 14.3823 29.5753 14.5044 29.5763 14.6279C29.576 14.8773 29.4777 15.1166 29.3025 15.2942C29.1273 15.4718 28.8893 15.5734 28.6399 15.5771Z" fill="#E60C2B"/>
<path d="M52.3158 26.7145C52.3158 28.2476 52.3055 29.7807 52.3234 31.3137C52.3234 31.6254 52.2289 31.6855 51.9402 31.6816C50.5451 31.6672 49.15 31.6672 47.7549 31.6816C47.4585 31.6816 47.3806 31.6101 47.3819 31.3099C47.3934 28.254 47.3819 25.1968 47.3959 22.1409C47.3959 21.8458 47.3346 21.7423 47.0254 21.7577C46.5706 21.7858 46.112 21.7577 45.6559 21.7679C45.4617 21.7679 45.4004 21.7206 45.4004 21.5124C45.4106 20.5491 45.4119 19.5846 45.4004 18.6213C45.4004 18.3862 45.4924 18.3504 45.6917 18.3543C46.1478 18.3658 46.6051 18.3428 47.0612 18.3645C47.3167 18.376 47.4087 18.307 47.3998 18.0336C47.3644 17.3744 47.4017 16.7134 47.5109 16.0624C47.8137 14.4578 48.8204 13.4919 50.3777 13.124C52.1113 12.7177 53.8565 12.9247 55.5952 13.1508C55.746 13.17 55.7702 13.2505 55.7702 13.3833C55.7702 14.4054 55.7702 15.4134 55.7702 16.4277C55.7702 16.59 55.7166 16.613 55.5684 16.5938C55.1417 16.5389 54.7124 16.498 54.2832 16.4584C54.1067 16.4399 53.929 16.4348 53.7517 16.4431C52.6147 16.5197 52.2685 16.9119 52.2736 18.0617C52.2736 18.2942 52.3285 18.3645 52.5662 18.3607C53.4911 18.3466 54.4173 18.3607 55.3423 18.3479C55.6131 18.3479 55.6821 18.4245 55.677 18.689C55.6604 19.6139 55.6629 20.5402 55.677 21.4664C55.677 21.704 55.6093 21.7653 55.3768 21.7615C54.4825 21.7487 53.5754 21.773 52.676 21.7487C52.3617 21.7398 52.3068 21.842 52.3106 22.132C52.3234 23.6701 52.3158 25.193 52.3158 26.7145Z" fill="#E60C2B"/>
<path d="M63.8554 26.7341C63.8554 28.2672 63.8554 29.8002 63.8554 31.3333C63.8554 31.5977 63.7852 31.6795 63.5156 31.677C62.1103 31.6642 60.705 31.6616 59.2908 31.677C58.988 31.677 58.9382 31.5722 58.9394 31.3026C58.9484 28.2825 58.9394 25.2624 58.9535 22.2423C58.9535 21.859 58.8666 21.7236 58.4719 21.7581C58.0567 21.7951 57.6351 21.7581 57.216 21.7709C57.0065 21.7709 56.9247 21.7146 56.9273 21.4924C56.9375 20.5406 56.9362 19.5888 56.9273 18.637C56.9273 18.4186 57.0091 18.3483 57.2186 18.3534C57.6887 18.3636 58.1589 18.3432 58.6239 18.3611C58.8794 18.3713 58.9484 18.278 58.9445 18.0328C58.9356 17.3224 58.919 16.6045 59.08 15.9107C59.439 14.3483 60.4853 13.4361 62.0068 13.1091C63.7034 12.7437 65.4128 12.9315 67.117 13.1602C67.2806 13.1819 67.3189 13.2764 67.3176 13.4234C67.3176 14.4122 67.3176 15.4023 67.3176 16.3924C67.3176 16.584 67.2512 16.6172 67.0621 16.5993C66.3722 16.5329 65.6862 16.3783 64.9835 16.4946C64.0713 16.6453 63.6255 17.2982 63.8222 18.1976C63.8695 18.4173 64.0241 18.3521 64.1467 18.3534C65.041 18.3534 65.9238 18.3662 66.8117 18.3534C67.1004 18.3534 67.2103 18.4147 67.2026 18.729C67.1796 19.6297 67.1847 20.5316 67.2026 21.4323C67.2026 21.6878 67.1362 21.7811 66.8641 21.7772C65.9698 21.7606 65.0883 21.7772 64.2004 21.7645C63.9155 21.7581 63.835 21.836 63.8376 22.1235C63.8631 23.6629 63.8554 25.1985 63.8554 26.7341Z" fill="#E60C2B"/>
<path d="M19.456 25.1126C19.456 24.1098 19.4457 23.1069 19.456 22.1053C19.456 21.8332 19.3793 21.7578 19.1149 21.7693C18.6588 21.791 18.2014 21.7693 17.744 21.7795C17.5409 21.7795 17.454 21.7399 17.4566 21.51C17.4694 20.5586 17.4694 19.6068 17.4566 18.6546C17.4566 18.4055 17.5499 18.3595 17.7683 18.3659C18.2257 18.38 18.683 18.3582 19.1391 18.3749C19.3793 18.3838 19.4649 18.3212 19.4675 18.0619C19.4751 16.8329 19.5147 15.6026 19.5224 14.3723C19.5224 14.1168 19.6003 14.0465 19.8379 14.044C21.2829 14.0286 22.729 14.0095 24.1752 13.9775C24.4307 13.9775 24.4895 14.058 24.4882 14.2995C24.4767 15.531 24.4882 16.7613 24.4767 17.9929C24.4767 18.2816 24.5342 18.3902 24.8472 18.3761C25.5051 18.3506 26.1669 18.3761 26.8261 18.3634C27.0816 18.357 27.1442 18.4375 27.1404 18.6879C27.1251 19.6145 27.1251 20.5407 27.1404 21.4665C27.1404 21.722 27.0574 21.7834 26.8172 21.7782C26.1324 21.7629 25.4464 21.7782 24.7616 21.768C24.5508 21.768 24.4754 21.8217 24.4767 22.044C24.4895 23.6307 24.4703 25.2161 24.4997 26.8028C24.5202 27.8453 24.9047 28.143 25.9485 28.0357C26.2649 28.0152 26.5786 27.9635 26.8849 27.8811C27.1059 27.8121 27.1404 27.8977 27.1404 28.0944C27.1327 29.1612 27.1404 30.2267 27.1404 31.2883C27.1404 31.4314 27.1545 31.5553 26.9513 31.5885C25.4298 31.844 23.9057 32.0152 22.379 31.678C20.4997 31.2666 19.5607 30.1168 19.4726 28.0817C19.4304 27.0928 19.4649 26.1015 19.4649 25.1126H19.456Z" fill="#E60C2B"/>
</g>
<defs>
<clipPath id="clip0_1770_4186">
<rect width="67.328" height="32" fill="white"/>
</clipPath>
</defs>
</svg>
